<?xml version="1.0" encoding="UTF-8" standalone="no"?>
<svg width="25px" height="25px" viewBox="0 0 25 25" version="1.1" xmlns="http://www.w3.org/2000/svg" xmlns:xlink="http://www.w3.org/1999/xlink" xmlns:sketch="http://www.bohemiancoding.com/sketch/ns">
    <!-- Generator: Sketch Beta 3.2.2 (9983) - http://www.bohemiancoding.com/sketch -->
    <title>add new icon</title>
    <desc>Created with Sketch Beta.</desc>
    <defs></defs>
    <g id="Page-1" stroke="none" stroke-width="1" fill="none" fill-rule="evenodd" sketch:type="MSPage">
        <g id="wallet-view" sketch:type="MSArtboardGroup" transform="translate(-1320.000000, -18.000000)" fill="#464646">
            <g id="header" sketch:type="MSLayerGroup">
                <g id="add-new-icon" transform="translate(1320.000000, 18.000000)" sketch:type="MSShapeGroup">
                    <path d="M11.75,13.25 L11.75,18.8573651 C11.75,19.3903333 12.0855,19.8217225 12.5,19.8217225 C12.9145,19.8217225 13.25,19.3903333 13.25,18.8573651 L13.25,13.25 L18.8573651,13.25 C19.3903333,13.25 19.8217225,12.9145 19.8217225,12.5 C19.8217225,12.0855 19.3903333,11.75 18.8573651,11.75 L13.25,11.75 L13.25,6.14263488 C13.25,5.60966672 12.9145,5.17827753 12.5,5.17827753 C12.0855,5.17827753 11.75,5.60966672 11.75,6.14263488 L11.75,11.75 L6.14263488,11.75 C5.60966672,11.75 5.17827753,12.0855 5.17827753,12.5 C5.17827753,12.9145 5.60966672,13.25 6.14263488,13.25 L11.75,13.25 Z M12.5,25 C19.4035594,25 25,19.4035594 25,12.5 C25,5.59644063 19.4035594,0 12.5,0 C5.59644063,0 0,5.59644063 0,12.5 C0,19.4035594 5.59644063,25 12.5,25 Z M12.5,23.6 C18.6303607,23.6 23.6,18.6303607 23.6,12.5 C23.6,6.36963928 18.6303607,1.4 12.5,1.4 C6.36963928,1.4 1.4,6.36963928 1.4,12.5 C1.4,18.6303607 6.36963928,23.6 12.5,23.6 Z"></path>
                </g>
            </g>
        </g>
    </g>
</svg>