<?xml version="1.0" encoding="UTF-8" standalone="no"?>
<svg width="2387px" height="324px" viewBox="0 0 2387 324" version="1.1" xmlns="http://www.w3.org/2000/svg" xmlns:xlink="http://www.w3.org/1999/xlink" xmlns:sketch="http://www.bohemiancoding.com/sketch/ns">
    <!-- Generator: Sketch Beta 3.2.2 (9983) - http://www.bohemiancoding.com/sketch -->
    <title>A L E X A N D R I A</title>
    <desc>Created with Sketch Beta.</desc>
    <defs></defs>
    <g id="Welcome-Screen" stroke="none" stroke-width="1" fill="none" fill-rule="evenodd" sketch:type="MSPage">
        <g id="A-L-E-X-A-N-D-R-I-A" sketch:type="MSArtboardGroup" fill="#FFFFFF">
            <g id="Group" sketch:type="MSLayerGroup" transform="translate(135.000000, 57.000000)">
                <path d="M1834.10385,0.096 L1853.11185,0.096 L1853.11185,204 L1834.10385,204 L1834.10385,0.096 Z" id="Path" sketch:type="MSShapeGroup"></path>
                <path d="M1678.57214,107.266228 L1735.86387,204 L1757.46387,204 L1698.13587,106.08 C1703.7039,105.311996 1709.55984,103.96801 1715.70387,102.048 C1721.8479,100.12799 1727.46385,97.2000197 1732.55187,93.264 C1737.6399,89.3279803 1741.86386,84.1920317 1745.22387,77.856 C1748.58389,71.5199683 1750.26387,63.456049 1750.26387,53.664 C1750.26387,44.8319558 1748.82389,37.3440307 1745.94387,31.2 C1743.06386,25.0559693 1739.41589,19.9680202 1734.99987,15.936 C1730.58385,11.9039798 1725.5919,8.83201056 1720.02387,6.72 C1714.45584,4.60798944 1708.9839,3.0720048 1703.60787,2.112 C1698.23184,1.1519952 1693.23989,0.57600096 1688.63187,0.384 C1684.02385,0.19199904 1680.37589,0.096 1677.68787,0.096 L1624.11987,0.096 L1624.11987,204 L1643.12787,204 L1643.12787,107.232 L1643.14221,107.232 L1643.14221,89.952 L1643.12787,89.952 L1643.12787,17.376 L1683.44787,17.376 C1693.43192,17.376 1701.54384,18.6239875 1707.78387,21.12 C1714.0239,23.6160125 1718.87185,26.6879818 1722.32787,30.336 C1725.78389,33.9840182 1728.13587,37.9199789 1729.38387,42.144 C1730.63188,46.3680211 1731.25587,50.2079827 1731.25587,53.664 C1731.25587,57.1200173 1730.63188,60.9599789 1729.38387,65.184 C1728.13587,69.4080211 1725.78389,73.3439818 1722.32787,76.992 C1718.87185,80.6400182 1714.0239,83.7119875 1707.78387,86.208 C1701.54384,88.7040125 1693.43192,89.952 1683.44787,89.952 L1678.57214,89.952 L1678.57214,107.266228 Z" id="Path" sketch:type="MSShapeGroup"></path>
                <path d="M1368.91989,0.096 L1431.99189,0.096 C1449.65598,0.096 1464.63183,2.2559784 1476.91989,6.576 C1489.20795,10.8960216 1499.43185,16.4159664 1507.59189,23.136 C1515.75193,29.8560336 1522.18387,37.2959592 1526.88789,45.456 C1531.59191,53.6160408 1535.04788,61.4399626 1537.25589,68.928 C1539.4639,76.4160374 1540.85589,83.1839698 1541.43189,89.232 C1542.00789,95.2800302 1542.29589,99.5519875 1542.29589,102.048 C1542.29589,104.544012 1542.00789,108.81597 1541.43189,114.864 C1540.85589,120.91203 1539.4639,127.679963 1537.25589,135.168 C1535.04788,142.656037 1531.59191,150.479959 1526.88789,158.64 C1522.18387,166.800041 1515.75193,174.239966 1507.59189,180.96 C1499.43185,187.680034 1489.20795,193.199978 1476.91989,197.52 C1464.63183,201.840022 1449.65598,204 1431.99189,204 L1368.91989,204 L1368.91989,0.096 Z M1387.92789,186.72 L1427.09589,186.72 C1440.53596,186.72 1453.11183,185.040017 1464.82389,181.68 C1476.53595,178.319983 1486.71185,173.184035 1495.35189,166.272 C1503.99193,159.359965 1510.80787,150.576053 1515.79989,139.92 C1520.79192,129.263947 1523.28789,116.640073 1523.28789,102.048 C1523.28789,87.455927 1520.79192,74.8320533 1515.79989,64.176 C1510.80787,53.5199467 1503.99193,44.7360346 1495.35189,37.824 C1486.71185,30.9119654 1476.53595,25.7760168 1464.82389,22.416 C1453.11183,19.0559832 1440.53596,17.376 1427.09589,17.376 L1387.92789,17.376 L1387.92789,186.72 Z" id="Path" sketch:type="MSShapeGroup"></path>
                <path d="M1108.24791,0.096 L1132.72791,0.096 L1256.85591,178.656 L1257.43191,178.656 L1257.43191,0.096 L1276.43991,0.096 L1276.43991,204 L1251.95991,204 L1127.83191,25.44 L1127.25591,25.44 L1127.25591,204 L1108.24791,204 L1108.24791,0.096 Z" id="Path" sketch:type="MSShapeGroup"></path>
                <path d="M1018.9652,204 L1039.67193,204 L953.847927,0.096 L934.263927,0.096 L845.271927,204 L864.865435,204 L943.231323,21.1015334 L1018.9652,204 Z" id="Path" sketch:type="MSShapeGroup"></path>
                <path d="M705.559945,96.864 L635.863945,0.096 L658.327945,0.096 L717.079945,83.04 L774.967945,0.096 L797.719945,0.096 L728.599945,96.864 L804.343945,204 L780.727945,204 L716.215945,111.84 L651.703945,204 L628.951945,204 L705.559945,96.864 Z" id="Path" sketch:type="MSShapeGroup"></path>
                <path d="M466,0.096 L571.319963,0.096 L571.319963,17.376 L466,17.376 L466,0.096 Z M466,89.952 L564.695963,89.952 L564.695963,107.232 L466,107.232 L466,89.952 Z M466,186.72 L575.927963,186.72 L575.927963,204 L466,204 L466,186.72 Z" id="Path" sketch:type="MSShapeGroup"></path>
                <path d="M263.415982,0.096 L282.423982,0.096 L282.423982,186.72 L377.463982,186.72 L377.463982,204 L263.415982,204 L263.415982,0.096 Z" id="Path" sketch:type="MSShapeGroup"></path>
                <path d="M173.638806,204 L194.84,204 L109.016,0.096 L89.432,0.096 L0.44,204 L20.312,204 L43.352,149.856 L43.4229846,149.856 L82.8581812,57.2847617 L98.36,20.832 L144.44,132.576 L144.279781,132.576 L173.638806,204 Z" id="ALEXANDRIA" sketch:type="MSShapeGroup"></path>
                <path d="M2095.15563,204 L2116.08784,204 L2030.26384,0.096 L2010.67984,0.096 L1921.68784,204 L1941.55984,204 L1964.59984,149.856 L1964.82677,149.856 L2019.646,21.2818561 L2095.15563,204 Z" id="Path" sketch:type="MSShapeGroup"></path>
            </g>
        </g>
    </g>
</svg>