<?xml version="1.0" encoding="UTF-8" standalone="no"?>
<svg width="38px" height="33px" viewBox="0 0 38 33" version="1.1" xmlns="http://www.w3.org/2000/svg" xmlns:xlink="http://www.w3.org/1999/xlink" xmlns:sketch="http://www.bohemiancoding.com/sketch/ns">
    <!-- Generator: Sketch Beta 3.2.2 (9983) - http://www.bohemiancoding.com/sketch -->
    <title>Shape</title>
    <desc>Created with Sketch Beta.</desc>
    <defs></defs>
    <g id="Page-1" stroke="none" stroke-width="1" fill="none" fill-rule="evenodd" sketch:type="MSPage">
        <g id="books-button" sketch:type="MSArtboardGroup" transform="translate(-19.000000, -22.000000)" fill="#979797">
            <path d="M56.9756309,53.1283177 L56.9756309,27.5608116 C56.9802413,27.5334278 56.978924,26.8271818 56.1569609,25.9591807 C53.737175,23.5213902 50.4302223,22 46.7801262,22 C43.3888695,22 40.2933351,23.3163305 37.9321669,25.4579944 C35.5683641,23.3150568 32.4708539,22 29.0789386,22 C25.4123769,22 22.0876412,23.5354004 19.6645623,25.9916591 C19.2792671,26.2648597 18.9980345,26.7150995 19.0000103,27.2436696 L19.0000103,53.036614 C19.0019862,53.1512436 19.0224036,53.2346685 19.0368933,53.2881623 C19.0316243,53.3403825 19.0289898,53.39515 19.0289898,53.4486439 C19.0276726,53.7868013 19.1449077,54.150432 19.4221885,54.42618 C19.6836624,54.6936492 20.0393195,54.8369363 20.3962939,54.8356626 C20.7664408,54.8369363 21.1332946,54.6828231 21.3987202,54.4000699 C21.4224307,54.3726862 21.4678757,54.3332026 21.5284692,54.2758878 C21.6417526,54.1886419 21.7458152,54.0892962 21.8340709,53.9772139 C23.7539608,52.1399554 26.2824196,51.0172217 29.0789386,51.015948 C32.1580073,51.0172217 34.9255468,52.36412 36.8928577,54.5459043 C37.1576246,54.8433046 37.5363336,55.0025124 37.9130668,54.9999651 C38.2601618,55.0025124 38.6098913,54.8655937 38.8726824,54.6108611 C38.9010033,54.58093 38.9220792,54.55482 38.9385449,54.5325309 C38.9820141,54.5051471 39.0386558,54.4643899 39.1032009,54.3981594 C41.0599738,52.3048947 43.7715302,51.0172217 46.7807848,51.015948 C49.666218,51.0172217 52.2664669,52.2074595 54.2028224,54.1517057 C54.2337778,54.1911892 54.2943712,54.2535987 54.364844,54.3121872 C54.4372927,54.3905175 54.531476,54.4739424 54.5966798,54.5459043 C54.8614468,54.8433046 55.2394972,55.0025124 55.6162303,54.9999651 L55.6247924,54.9999651 C55.9692529,54.9999651 56.3143721,54.86432 56.5745287,54.6108611 C56.8630061,54.3312921 57,53.9606563 57,53.5944782 C57,53.4785749 56.9835344,53.3741346 56.9598239,53.2760626 C56.9644343,53.244221 56.9723378,53.1964586 56.9756309,53.1283177 L56.9756309,53.1283177 Z M49.5555691,48.5011009 C48.6591814,48.3055937 47.7311797,48.202427 46.7801262,48.202427 C44.1080873,48.202427 41.6198045,49.022029 39.5280136,50.4141423 L39.5280136,27.7786079 C39.771046,27.5455276 40.0239578,27.3245471 40.2860902,27.1150296 C42.0907209,25.6700592 44.3339954,24.8128842 46.7794676,24.8128842 C49.4653376,24.8128842 52.1202523,26.135583 54.0105041,27.8448384 L54.0105041,50.5395981 C52.7242108,49.7250908 51.0796258,48.8348005 49.5555691,48.5011009 L49.5555691,48.5011009 Z M33.8348649,49.1060907 C33.8243269,49.100996 33.811813,49.0984487 33.8006164,49.0933541 C32.3312255,48.5202058 30.7399891,48.2030638 29.0782799,48.2030638 C27.5061436,48.2030638 25.9939422,48.4839064 24.5897551,48.999103 C23.9713068,49.2264518 23.3759104,49.5028366 22.8022486,49.8161577 C22.5908302,49.932061 22.1561382,50.3670168 21.9519646,50.4937463 L21.9519646,27.7696923 C22.3359426,27.4315348 22.9715151,26.8106242 23.3969864,26.5304184 C25.0468404,25.4458946 26.986489,24.8128842 29.0782799,24.8128842 C31.88863,24.8128842 34.4296027,25.9458072 36.3501512,27.8015338 L36.3501512,50.4224212 C35.6408128,49.9486186 34.8814189,49.5480517 34.0877766,49.2156257 C34.0041313,49.1806 33.9218033,49.1404796 33.8348649,49.1060907 L33.8348649,49.1060907 Z" id="Shape" sketch:type="MSShapeGroup"></path>
        </g>
    </g>
</svg>