<?xml version="1.0" encoding="utf-8"?>
<!-- Generator: Adobe Illustrator 16.0.0, SVG Export Plug-In . SVG Version: 6.00 Build 0)  -->
<!DOCTYPE svg PUBLIC "-//W3C//DTD SVG 1.1//EN" "http://www.w3.org/Graphics/SVG/1.1/DTD/svg11.dtd">
<svg version="1.1" id="Layer_1" xmlns="http://www.w3.org/2000/svg" xmlns:xlink="http://www.w3.org/1999/xlink" x="0px" y="0px"
	 width="91px" height="91.001px" viewBox="4.5 4.499 91 91.001" enable-background="new 4.5 4.499 91 91.001" xml:space="preserve">
<g>
	<path fill="#979797" stroke="#979797" stroke-miterlimit="10" d="M72.846,38.341L50.003,61.186L27.155,38.341
		c-1.185-1.185-3.105-1.185-4.29,0c-1.185,1.185-1.185,3.105,0,4.29l24.993,24.99c0.569,0.568,1.339,0.889,2.145,0.889
		c0.806,0,1.576-0.32,2.146-0.889l24.986-24.99c1.186-1.185,1.186-3.105,0-4.29C75.95,37.156,74.029,37.156,72.846,38.341z"/>
	<path fill="#979797" stroke="#979797" stroke-miterlimit="10" d="M49.997,4.999c-11.91,0-23.138,4.61-31.617,12.979
		C9.83,26.425,5.078,37.698,5.001,49.717c-0.077,12.02,4.533,23.352,12.982,31.901C26.503,90.248,37.874,95,50.003,95
		c11.91,0,23.138-4.609,31.617-12.979c8.55-8.446,13.302-19.717,13.379-31.735c0.077-12.019-4.533-23.351-12.981-31.901
		C73.496,9.754,62.126,4.999,49.997,4.999z M77.354,77.702c-7.328,7.243-17.047,11.231-27.351,11.231
		c-10.494,0-20.335-4.113-27.706-11.578c-7.306-7.398-11.293-17.201-11.228-27.601c0.065-10.399,4.177-20.152,11.578-27.457
		c7.335-7.244,17.047-11.231,27.351-11.231c10.494,0,20.335,4.112,27.706,11.581c7.306,7.398,11.293,17.201,11.228,27.6
		C88.866,60.646,84.754,70.396,77.354,77.702z"/>
</g>
</svg>
