<svg xmlns="http://www.w3.org/2000/svg" xmlns:xlink="http://www.w3.org/1999/xlink" version="1.1" id="Layer_1" x="0px" y="0px" viewBox="0 0 100 100" enable-background="new 0 0 100 100" xml:space="preserve" height="100px" width="100px">
<g>
	<path d="M72.845,38.341L50.003,61.185L27.155,38.341c-1.185-1.185-3.105-1.185-4.29,0s-1.185,3.105,0,4.29l24.993,24.99   c0.569,0.569,1.339,0.889,2.145,0.889c0.806,0,1.576-0.32,2.145-0.889l24.987-24.99c1.185-1.185,1.185-3.105,0-4.29   S74.03,37.156,72.845,38.341z"/>
	<path d="M49.997,4.999c-11.91,0-23.138,4.61-31.617,12.979C9.83,26.425,5.078,37.698,5.001,49.717s4.533,23.351,12.982,31.901   c8.52,8.63,19.891,13.382,32.02,13.382c11.91,0,23.138-4.61,31.617-12.979c8.55-8.446,13.302-19.716,13.379-31.735   c0.077-12.019-4.533-23.351-12.982-31.901C73.496,9.754,62.126,4.999,49.997,4.999z M77.354,77.702   c-7.329,7.244-17.047,11.231-27.351,11.231c-10.494,0-20.335-4.112-27.706-11.578c-7.306-7.398-11.293-17.201-11.228-27.6   c0.065-10.399,4.177-20.152,11.578-27.457c7.335-7.244,17.047-11.231,27.351-11.231c10.494,0,20.335,4.112,27.706,11.581   c7.306,7.398,11.293,17.201,11.228,27.6C88.866,60.646,84.754,70.396,77.354,77.702z"/>
</g>
</svg>