<?xml version="1.0" encoding="UTF-8" standalone="no"?>
<svg width="94px" height="84px" viewBox="0 0 94 84" version="1.1" xmlns="http://www.w3.org/2000/svg" xmlns:xlink="http://www.w3.org/1999/xlink" xmlns:sketch="http://www.bohemiancoding.com/sketch/ns">
    <!-- Generator: Sketch Beta 3.3 (11556) - http://www.bohemiancoding.com/sketch -->
    <title>Shape</title>
    <desc>Created with Sketch Beta.</desc>
    <defs></defs>
    <g id="Page-1" stroke="none" stroke-width="1" fill="none" fill-rule="evenodd" sketch:type="MSPage">
        <path d="M81.449,12.465 C65.171,-3.813 38.683,-3.813 22.4,12.465 C15.216,19.651 10.954,29.057 10.27,39.132 L6.016,34.551 C4.785,33.229 2.712,33.15 1.389,34.379 C0.063,35.61 -0.013,37.683 1.217,39.009 L10.692,49.211 C11.337,49.905 12.213,50.257 13.092,50.257 C13.889,50.257 14.688,49.968 15.319,49.383 L25.524,39.907 C26.85,38.676 26.926,36.603 25.696,35.279 C24.466,33.954 22.393,33.874 21.068,35.107 L16.884,38.991 C17.584,30.722 21.116,23.013 27.031,17.095 C40.758,3.37 63.092,3.37 76.818,17.095 C90.543,30.821 90.543,53.157 76.818,66.883 C70.17,73.532 61.329,77.194 51.924,77.194 C42.524,77.194 33.683,73.533 27.031,66.883 C25.751,65.604 23.677,65.604 22.399,66.883 C21.121,68.162 21.121,70.237 22.4,71.514 C30.29,79.401 40.775,83.743 51.924,83.743 C63.077,83.743 73.562,79.4 81.448,71.514 C97.728,55.235 97.728,28.744 81.449,12.465 L81.449,12.465 Z M66.513,41.325 L53.555,41.322 L53.555,19.102 C53.555,17.293 52.088,15.831 50.284,15.831 C48.48,15.831 47.013,17.294 47.013,19.102 L47.013,44.594 C47.013,46.402 48.48,47.865 50.284,47.865 L50.284,47.865 L50.289,47.865 L66.512,47.865 C68.317,47.865 69.782,46.402 69.782,44.595 C69.781,42.791 68.316,41.325 66.513,41.325 L66.513,41.325 Z" id="Shape" fill="#000000" sketch:type="MSShapeGroup"></path>
    </g>
</svg>