<?xml version="1.0" encoding="UTF-8" standalone="no"?>
<svg width="90px" height="78px" viewBox="0 0 90 78" version="1.1" xmlns="http://www.w3.org/2000/svg" xmlns:xlink="http://www.w3.org/1999/xlink" xmlns:sketch="http://www.bohemiancoding.com/sketch/ns">
    <!-- Generator: Sketch Beta 3.3 (11556) - http://www.bohemiancoding.com/sketch -->
    <title>Shape</title>
    <desc>Created with Sketch Beta.</desc>
    <defs></defs>
    <g id="Page-1" stroke="none" stroke-width="1" fill="none" fill-rule="evenodd" sketch:type="MSPage">
        <path d="M89.855,39.997 C89.829,40.102 89.785,40.208 89.75,40.313 C89.662,40.524 89.548,40.735 89.416,40.928 C89.355,41.025 89.284,41.121 89.205,41.218 C89.135,41.306 89.056,41.394 88.968,41.481 L73.234,57.223 C72.549,57.908 71.645,58.25 70.749,58.25 C69.853,58.25 68.949,57.908 68.264,57.223 C66.894,55.853 66.894,53.623 68.264,52.253 L78.01,42.516 L33.574,42.516 C31.634,42.516 30.062,40.936 30.062,39.004 C30.062,37.064 31.634,35.492 33.574,35.492 L78.011,35.492 L68.265,25.746 C66.895,24.376 66.895,22.146 68.265,20.776 C69.635,19.406 71.865,19.406 73.235,20.776 L88.968,36.52 C89.214,36.766 89.416,37.038 89.574,37.337 C89.635,37.434 89.679,37.539 89.723,37.644 C89.749,37.688 89.767,37.741 89.776,37.785 C89.811,37.855 89.837,37.925 89.855,38.005 C90.048,38.653 90.048,39.347 89.855,39.997 Z M52.616,77.486 L3.512,77.486 C1.573,77.486 0,75.914 0,73.974 L0,4.026 C0,2.086 1.573,0.514 3.512,0.514 L52.615,0.514 C54.555,0.514 56.127,2.087 56.127,4.026 L56.127,20.2 C56.127,22.14 54.554,23.712 52.615,23.712 C50.676,23.712 49.103,22.139 49.103,20.2 L49.103,7.538 L7.024,7.538 L7.024,70.462 L49.103,70.462 L49.103,58.403 C49.103,56.463 50.676,54.891 52.615,54.891 C54.554,54.891 56.127,56.464 56.127,58.403 L56.127,73.974 C56.128,75.914 54.555,77.486 52.616,77.486 Z" id="Shape" fill="#000000" sketch:type="MSShapeGroup"></path>
    </g>
</svg>