<?xml version="1.0" encoding="UTF-8" standalone="no"?>
<svg width="18px" height="18px" viewBox="0 0 18 18" version="1.1" xmlns="http://www.w3.org/2000/svg" xmlns:xlink="http://www.w3.org/1999/xlink" xmlns:sketch="http://www.bohemiancoding.com/sketch/ns">
    <!-- Generator: Sketch 3.0.4 (8053) - http://www.bohemiancoding.com/sketch -->
    <title>aicon</title>
    <desc>Created with Sketch.</desc>
    <defs></defs>
    <g id="Page-1" stroke="none" stroke-width="1" fill="none" fill-rule="evenodd" sketch:type="MSPage">
        <path d="M8.86169636,15.8251361 C5.01675331,15.8251361 1.89920625,12.7085386 1.89920625,8.86264596 C1.89920625,6.28637268 3.30271967,4.0424605 5.38140091,2.83836374 L5.38140091,12.3467398 L8.86169636,8.86549477 L12.343891,12.3467398 L12.343891,2.83836374 C14.4225723,4.0424605 15.8251361,6.28637268 15.8251361,8.86264596 C15.8251361,12.7085386 12.7085386,15.8251361 8.86169636,15.8251361 M0,8.86264596 C0,13.748354 3.97503868,17.7243423 8.86169636,17.7243423 C12.8138382,17.7243423 16.1703153,15.1236659 17.3095508,11.5443922 C17.5789322,10.698044 17.7243423,9.79698016 17.7243423,8.86264596 C17.7243423,3.97503868 13.748354,0 8.86169636,0 C3.97503868,0 0,3.97503868 0,8.86264596 Z" id="aicon" fill-opacity="0.390794837" fill="#010101" sketch:type="MSShapeGroup"></path>
    </g>
</svg>