<?xml version="1.0" encoding="UTF-8" standalone="no"?>
<svg width="125px" height="125px" viewBox="0 0 125 125" version="1.1" xmlns="http://www.w3.org/2000/svg" xmlns:xlink="http://www.w3.org/1999/xlink" xmlns:sketch="http://www.bohemiancoding.com/sketch/ns">
    <!-- Generator: Sketch Beta 3.2.2 (9983) - http://www.bohemiancoding.com/sketch -->
    <title>media icon</title>
    <desc>Created with Sketch Beta.</desc>
    <defs></defs>
    <g id="Page-1" stroke="none" stroke-width="1" fill="none" fill-rule="evenodd" sketch:type="MSPage">
        <g id="module-select-view" sketch:type="MSArtboardGroup" transform="translate(-1177.000000, -692.000000)" fill="#A3CCB1">
            <g id="modules-&amp;-titles" sketch:type="MSLayerGroup" transform="translate(504.000000, 252.000000)">
                <g id="Media" transform="translate(545.000000, 351.000000)" sketch:type="MSShapeGroup">
                    <path d="M232.627731,89.0157199 L235.27242,89.0157199 C236.797561,89.0157199 236.630879,88.8934989 236.630879,90.4170953 L236.630879,92.7490173 C236.630879,93.7281746 237.432341,94.5309446 238.412988,94.5309446 L245.688659,94.5309446 C246.667916,94.5309446 247.470768,93.7295635 247.470768,92.7490173 L247.470768,90.064321 C247.470768,88.947665 247.324921,89.0171088 248.450025,89.0171088 L251.980906,89.0171088 C253.132401,89.0171088 252.994889,88.9407207 252.994889,90.0879318 L252.994889,210.772881 C252.994889,214.518678 253.129623,213.968684 249.402891,213.968684 L245.755332,213.968684 L245.713661,213.968684 L238.43799,213.968684 L238.392152,213.968684 L234.491792,213.968684 C231.194266,213.968684 231.252605,214.500623 231.252605,211.179822 C231.252605,210.961768 231.233158,210.752048 231.18871,210.556217 L231.18871,208.429848 C231.18871,205.445155 228.746818,203.003511 225.76182,203.003511 L155.215032,203.003511 C152.230035,203.003511 149.788143,205.445155 149.788143,208.429848 L149.788143,211.995092 L149.788143,213.367301 C149.727026,214.028405 149.397829,213.967295 147.932416,213.967295 L146.150307,213.967295 C144.122342,213.967295 144.398756,214.064516 144.398756,212.045091 L144.398756,210.258997 C144.398756,209.278451 143.597294,208.47707 142.616648,208.47707 L135.340976,208.47707 C134.361719,208.47707 133.558867,209.278451 133.558867,210.258997 L133.558867,211.485374 C133.558867,213.643687 134.115863,213.967295 131.90177,213.967295 L130.018263,213.967295 C127.484696,213.967295 128.051415,213.76313 128.059749,211.277043 C128.231987,171.714924 128.048637,131.337535 128.045859,91.8170819 C128.045859,88.6448902 127.84584,89.0157199 131.030856,89.0157199 L135.020113,89.0157199 C135.118733,89.0323865 135.214576,89.0407197 135.315974,89.0407197 L142.591645,89.0407197 C142.693044,89.0407197 142.795831,89.0337753 142.894451,89.0157199 L147.214294,89.0157199 C149.307543,89.0157199 149.720081,88.880999 149.788143,89.9226557 L149.788143,91.6406947 L149.788143,94.4351122 C149.788143,97.4198057 152.230035,99.8614489 155.215032,99.8614489 L225.764598,99.8614489 C228.749596,99.8614489 231.191488,97.4198057 231.191488,94.4351122 L231.191488,91.0045897 C231.234547,90.7434811 231.255383,90.465706 231.255383,90.1615423 C231.253994,88.7768334 231.256772,89.0157199 232.627731,89.0157199 L232.627731,89.0157199 L232.627731,89.0157199 Z M198.63015,164.891378 C198.556532,155.367859 198.68571,145.915172 198.669042,136.341653 C200.213629,137.386088 201.937399,138.422189 203.583385,139.295791 C204.464021,139.762454 205.266873,140.181894 206.054446,140.579112 C208.242148,141.683268 210.375678,142.63187 212.692559,143.737415 C213.182882,143.970746 213.681539,144.198522 214.128802,144.279077 C214.934432,144.424909 214.934432,143.424918 214.9511,142.405484 C214.9511,138.849962 214.987215,135.749992 214.9511,132.191693 C214.944155,131.280591 214.910819,130.922261 214.191308,130.427821 C212.093892,129.229222 209.995087,128.029233 207.899061,126.829245 C205.529398,125.475091 203.520879,124.097327 201.373458,122.412621 C199.277432,120.77097 197.184183,119.129319 195.088156,117.486279 C193.956107,116.721009 193.225484,117.140449 193.23104,118.591824 C193.242153,122.195956 193.254654,125.802866 193.265766,129.406998 L193.196315,163.031674 C190.315494,160.884473 186.506809,159.573374 182.335591,159.573374 C173.343094,159.573374 166.050755,165.641371 166.050755,173.124632 C166.050755,180.609283 173.343094,186.67728 182.335591,186.67728 C188.376426,186.67728 193.858876,184.071749 196.463283,179.870401 C199.135752,175.557942 198.660708,168.842729 198.63015,164.891378 L198.63015,164.891378 L198.63015,164.891378 Z M155.346989,105.344729 C152.288373,105.344729 149.788143,107.844705 149.788143,110.904398 L149.788143,192.068895 C149.788143,195.127198 152.296708,197.628563 155.346989,197.628563 L225.695147,197.628563 C228.746818,197.628563 231.255383,195.120254 231.255383,192.068895 L231.255383,110.903009 C231.255383,107.85165 228.753763,105.343341 225.695147,105.343341 L155.346989,105.343341 L155.346989,105.344729 L155.346989,105.344729 Z M238.439379,170.526046 C237.460122,170.526046 236.65727,171.327428 236.65727,172.307974 L236.65727,179.582904 C236.65727,180.56345 237.458733,181.364831 238.439379,181.364831 L245.71505,181.364831 C246.694307,181.364831 247.497159,180.56345 247.497159,179.582904 L247.497159,172.307974 C247.497159,171.327428 246.695696,170.526046 245.71505,170.526046 L238.439379,170.526046 L238.439379,170.526046 Z M238.503274,192.216115 C237.522628,192.216115 236.721165,193.017497 236.721165,193.998043 L236.721165,201.272973 C236.721165,202.253519 237.522628,203.0549 238.503274,203.0549 L245.778945,203.0549 C246.759591,203.0549 247.561054,202.253519 247.561054,201.272973 L247.561054,193.998043 C247.561054,193.017497 246.759591,192.216115 245.778945,192.216115 L238.503274,192.216115 L238.503274,192.216115 Z M238.414377,127.134797 C237.43512,127.134797 236.632268,127.936179 236.632268,128.916725 L236.632268,136.191655 C236.632268,137.172201 237.433731,137.973582 238.414377,137.973582 L245.690048,137.973582 C246.669305,137.973582 247.472157,137.172201 247.472157,136.191655 L247.472157,128.916725 C247.472157,127.936179 246.670694,127.134797 245.690048,127.134797 L238.414377,127.134797 L238.414377,127.134797 Z M238.476882,148.824866 C237.496236,148.824866 236.694773,149.626248 236.694773,150.606794 L236.694773,157.881724 C236.694773,158.86227 237.496236,159.663651 238.476882,159.663651 L245.752554,159.663651 C246.731811,159.663651 247.534663,158.86227 247.534663,157.881724 L247.534663,150.606794 C247.534663,149.626248 246.7332,148.824866 245.752554,148.824866 L238.476882,148.824866 L238.476882,148.824866 Z M238.476882,105.382229 C237.496236,105.382229 236.694773,106.18361 236.694773,107.164156 L236.694773,114.439086 C236.694773,115.418244 237.496236,116.221014 238.476882,116.221014 L245.752554,116.221014 C246.731811,116.221014 247.534663,115.419632 247.534663,114.439086 L247.534663,107.164156 C247.534663,106.18361 246.7332,105.382229 245.752554,105.382229 L238.476882,105.382229 L238.476882,105.382229 Z M135.340976,165.035821 C134.361719,165.035821 133.558867,165.837203 133.558867,166.817749 L133.558867,174.092679 C133.558867,175.073225 134.36033,175.874606 135.340976,175.874606 L142.616648,175.874606 C143.597294,175.874606 144.398756,175.073225 144.398756,174.092679 L144.398756,166.817749 C144.398756,165.837203 143.597294,165.035821 142.616648,165.035821 L135.340976,165.035821 L135.340976,165.035821 L135.340976,165.035821 Z M135.403482,186.72589 C134.424225,186.72589 133.621373,187.527272 133.621373,188.507818 L133.621373,195.782748 C133.621373,196.763294 134.422836,197.564675 135.403482,197.564675 L142.679153,197.564675 C143.65841,197.564675 144.461262,196.763294 144.461262,195.782748 L144.461262,188.507818 C144.461262,187.527272 143.659799,186.72589 142.679153,186.72589 L135.403482,186.72589 L135.403482,186.72589 Z M135.314585,121.644572 C134.333939,121.644572 133.532476,122.445954 133.532476,123.4265 L133.532476,130.70143 C133.532476,131.681976 134.333939,132.483357 135.314585,132.483357 L142.590256,132.483357 C143.570902,132.483357 144.372365,131.681976 144.372365,130.70143 L144.372365,123.4265 C144.372365,122.445954 143.570902,121.644572 142.590256,121.644572 L135.314585,121.644572 L135.314585,121.644572 L135.314585,121.644572 Z M135.377091,143.334641 C134.397834,143.334641 133.594982,144.136023 133.594982,145.116569 L133.594982,152.391499 C133.594982,153.372045 134.396445,154.173426 135.377091,154.173426 L142.652762,154.173426 C143.633408,154.173426 144.434871,153.372045 144.434871,152.391499 L144.434871,145.116569 C144.434871,144.136023 143.633408,143.334641 142.652762,143.334641 L135.377091,143.334641 L135.377091,143.334641 Z M135.377091,99.893393 C134.397834,99.893393 133.594982,100.694774 133.594982,101.67532 L133.594982,108.95025 C133.594982,109.929408 134.396445,110.732178 135.377091,110.732178 L142.652762,110.732178 C143.633408,110.732178 144.434871,109.930796 144.434871,108.95025 L144.434871,101.67532 C144.434871,100.694774 143.633408,99.893393 142.652762,99.893393 L135.377091,99.893393 L135.377091,99.893393 Z" id="media-icon"></path>
                </g>
            </g>
        </g>
    </g>
</svg>