<?xml version="1.0" encoding="UTF-8" standalone="no"?>
<svg width="90px" height="85px" viewBox="0 0 90 85" version="1.1" xmlns="http://www.w3.org/2000/svg" xmlns:xlink="http://www.w3.org/1999/xlink" xmlns:sketch="http://www.bohemiancoding.com/sketch/ns">
    <!-- Generator: Sketch Beta 3.3 (11556) - http://www.bohemiancoding.com/sketch -->
    <title>module icon noun_91705</title>
    <desc>Created with Sketch Beta.</desc>
    <defs></defs>
    <g id="Page-1" stroke="none" stroke-width="1" fill="none" fill-rule="evenodd" sketch:type="MSPage">
        <path d="M87.5,17.5 L46.6,1 C46,0.7 45.4,0.7 45.1,0.7 C44.5,0.7 44,0.9 43.7,1 L2.7,17.7 C0.8,18.5 -0.1,20.7 0.3,22.4 C0.8,25.2 3,26 4.2,26 L9,26 L9,26.5 L9,74 L4.4,74 C3.2,74 2.3,74.8 2.3,76 C2.3,77.2 3.3,78 4.4,78 L85.3,78 C86.5,78 87.4,77.2 87.4,76 C87.4,74.8 86.4,74 85.3,74 L81,74 L81,26.4 C81,26.3 81,26.2 80.9,26 L85.9,26 C88.2,26 89.5,23.9 89.8,22.4 C90.2,20.8 89.5,18.4 87.5,17.5 L87.5,17.5 Z M17,26.4 L17,74 L13,74 L13,26.5 L13,26 L17,26 L17,26.4 L17,26.4 Z M25,27 L25,74 L21,74 L21,26.4 L21,26 L25.3,26 C25.1,26.3 25,26.6 25,27 L25,27 Z M60,26.4 L60,74 L29,74 L29,27 C29,26.6 28.9,26.3 28.8,26 L60,26 L60,26.4 L60,26.4 Z M68,26.4 L68,74 L64,74 L64,26.4 L64,26 L68,26 L68,26.4 L68,26.4 Z M76,26.4 L76,74 L72,74 L72,26.4 L72,26 L76.1,26 C76,26.1 76,26.2 76,26.4 L76,26.4 Z M85.5,22 L4.7,22 C4.6,22 4.5,21.9 4.5,21.7 C4.5,21.7 4.5,21.8 4.5,21.7 L45.2,5 L45.3,5 L85.7,21.3 C85.8,21.5 85.8,21.6 85.8,21.7 C85.7,21.9 85.6,22 85.5,22 Z M87.6,81 L2.1,81 C1,81 0,81.8 0,83 C0,84.2 1,85 2.1,85 L87.5,85 C88.7,85 89.6,84.2 89.6,83 C89.6,81.8 88.8,81 87.6,81 Z" id="module-icon-noun_91705" fill="#000000" sketch:type="MSShapeGroup"></path>
    </g>
</svg>