<?xml version="1.0" encoding="UTF-8" standalone="no"?>
<svg width="69px" height="66px" viewBox="0 0 69 66" version="1.1" xmlns="http://www.w3.org/2000/svg" xmlns:xlink="http://www.w3.org/1999/xlink" xmlns:sketch="http://www.bohemiancoding.com/sketch/ns">
    <!-- Generator: Sketch Beta 3.3 (11556) - http://www.bohemiancoding.com/sketch -->
    <title>Oval 1 + Shape 4</title>
    <desc>Created with Sketch Beta.</desc>
    <defs>
        <path d="M36.65,10.1 C24.2344595,10.1 14.15,20.1844595 14.15,32.6 C14.15,45.0155405 24.2344595,55.1 36.65,55.1 C49.0655405,55.1 59.15,45.0155405 59.15,32.6 C59.15,20.1844595 49.0655405,10.1 36.65,10.1 L36.65,10.1 Z M53.1195946,43.85 L48.1027027,42.6844595 C47.5959459,42.5831081 47.0385135,42.4310811 46.4304054,42.3297297 C43.3898649,41.6709459 41.5655405,41.2148649 41.2108108,40.4547297 C41.0587838,40.1 41.1601351,39.5425676 41.5148649,38.8837838 C45.0114865,32.2959459 45.5689189,27.2790541 43.2885135,23.4783784 C42.1736486,21.6033784 40.4,20.2858108 38.1702703,19.6777027 C37.6635135,19.5763514 37.1567568,19.5256757 36.65,19.5256757 C35.8898649,19.5256757 35.0790541,19.6777027 34.3189189,19.9310811 C34.1162162,19.9817568 33.6094595,20.2351351 33.5587838,20.2351351 C32.0385135,20.9445946 30.8222973,22.0594595 29.9608108,23.4783784 C27.6804054,27.2790541 28.2378378,32.3466216 31.6837838,38.8837838 C32.0385135,39.5932432 32.1398649,40.1 31.9878378,40.4547297 C31.6331081,41.2148649 29.8087838,41.6709459 26.7682432,42.3297297 C26.2108108,42.4310811 20.0790541,43.85 20.0790541,43.85 L20.0283784,43.697973 C17.8493243,40.4040541 16.6837838,36.6033784 16.6837838,32.6 C16.6837838,21.4006757 25.4506757,12.6337838 36.65,12.6337838 C47.6466216,12.6337838 56.6162162,21.6033784 56.6162162,32.6 C56.6162162,36.5527027 55.4506757,40.4040541 53.2209459,43.697973 L53.1195946,43.85 Z" id="path-1"></path>
    </defs>
    <g id="Page-1" stroke="none" stroke-width="1" fill="none" fill-rule="evenodd" sketch:type="MSPage">
        <g id="Oval-1-+-Shape-4" sketch:type="MSLayerGroup" transform="translate(1.000000, 0.000000)">
            <path d="M68,5.01886225 L68,32.4000015 L68,59.1510468 C68,62.7000008 67.5513694,65.3000031 63.5702951,65.3000031 C59.5892208,65.3000031 7.83929265,65.3 7.83929265,65.3 C6.41728877,65.3 5.3,64.2 5.3,62.7 L5.3,58.6 L7.83929265,58.6 C10.0738702,58.6 11.9880155,57 11.9880155,55 C11.9880155,53 10.1754419,51.4 7.83929265,51.4 L5.3,51.4 L5.3,47.3 L7.83929265,47.3 C10.0738702,47.3 11.9880155,45.7 11.9880155,43.7 C11.9880155,41.7 10.1754419,40.1 7.83929265,40.1 L5.3,40.1 L5.3,36 L7.83929265,36 C10.0738702,36 11.9880155,34.4 11.9880155,32.4 C11.9880155,30.4 10.1754419,28.8 7.83929265,28.8 L5.3,28.8 L5.3,25 L7.83929265,25 C10.0738702,25 11.9880155,23.4 11.9880155,21.4 C11.9880155,19.4 10.1754419,17.8 7.83929265,17.8 L5.3,17.8 L5.3,13.7 L7.83929265,13.7 C10.0738702,13.7 11.9880155,12.1 11.9880155,10.1 C11.9880155,8.1 10.1754419,6.5 7.83929265,6.5 L5.3,6.5 L5.3,2.5 C5.3,1.1 7.41728877,3.55271368e-15 8.83929265,3.55271368e-15 C8.83929265,3.55271368e-15 57.5552371,3.63194552e-10 62.7776186,3.55271368e-15 C68,-3.63187452e-10 68,2.50000011 68,5.01886225 Z" id="Path" stroke="#484848" sketch:type="MSShapeGroup"></path>
            <path d="M2.6,12.2 L5.2,12.2 L7.7,12.2 C9.1,12.2 10.2,11.3 10.2,10.2 C10.2,9.1 9.1,8.2 7.7,8.2 L5.2,8.2 L2.6,8.2 C1.2,8.2 0,9.1 0,10.2 C-1.77635684e-15,11.3 1.2,12.2 2.6,12.2 L2.6,12.2 Z M7.7,19.4 L5.2,19.4 L2.6,19.4 C1.2,19.4 0,20.3 0,21.4 C0,22.5 1.1,23.4 2.6,23.4 L5.2,23.4 L7.7,23.4 C9.1,23.4 10.2,22.5 10.2,21.4 C10.2,20.3 9.1,19.4 7.7,19.4 L7.7,19.4 Z M5.2,30.6 L2.6,30.6 C1.2,30.6 0,31.5 0,32.6 C0,33.7 1.1,34.6 2.6,34.6 L5.2,34.6 L7.7,34.6 C9.1,34.6 10.2,33.7 10.2,32.6 C10.2,31.5 9.1,30.6 7.7,30.6 L5.2,30.6 Z M7.7,41.8 L5.2,41.8 L2.6,41.8 C1.2,41.8 0,42.7 0,43.8 C0,44.9 1.1,45.8 2.6,45.8 L5.2,45.8 L7.7,45.8 C9.1,45.8 10.2,44.9 10.2,43.8 C10.2,42.7 9.1,41.8 7.7,41.8 L7.7,41.8 Z M7.7,53 L5.2,53 L2.6,53 C1.2,53 0,53.9 0,55 C0,56.1 1.1,57 2.6,57 L5.2,57 L7.7,57 C9.1,57 10.2,56.1 10.2,55 C10.2,54 9.1,53 7.7,53 L7.7,53 Z" id="Oval-1" stroke="#484848" sketch:type="MSShapeGroup"></path>
            <g id="Path">
                <use fill="#484848" fill-rule="evenodd" sketch:type="MSShapeGroup" xlink:href="#path-1"></use>
                <use fill="none" xlink:href="#path-1"></use>
            </g>
        </g>
    </g>
</svg>