<svg xmlns="http://www.w3.org/2000/svg" xmlns:xlink="http://www.w3.org/1999/xlink" version="1.1" id="Layer_1" x="0px" y="0px" width="100px" height="100px" viewBox="0 0 100 100" enable-background="new 0 0 100 100" xml:space="preserve">
<g>
	<g>
		<path d="M92.501,40.823l-7.782-1.725c-0.608-1.937-1.399-3.792-2.313-5.577l4.213-7.01c1.572-2.511,2.364-6.201,0-8.568    l-4.292-4.286c-1.158-1.158-2.714-1.648-4.279-1.648c-1.626,0-3.269,0.528-4.499,1.38l-6.825,4.346    c-1.771-0.919-3.62-1.702-5.546-2.326l-1.749-7.868c-0.519-2.889-3.045-6.013-6.396-6.013h-6.061c-3.35,0-5.403,3.172-6.067,6.061    l-1.944,7.773c-2.058,0.655-4.028,1.492-5.909,2.481l-6.996-4.455c-1.228-0.853-2.873-1.38-4.499-1.38    c-1.565,0-3.118,0.49-4.279,1.648l-4.286,4.286c-2.371,2.367-1.579,6.058,0,8.568l4.429,7.378    c-0.831,1.674-1.569,3.401-2.138,5.208l-7.782,1.725c-2.889,0.522-6.017,3.045-6.017,6.389v6.062c0,3.343,3.175,5.396,6.064,6.058    l7.881,1.966c0.547,1.666,1.225,3.274,1.995,4.827l-4.432,7.385c-1.575,2.507-2.367,6.196,0,8.564l4.289,4.286    c1.158,1.158,2.71,1.646,4.279,1.646c1.625,0,3.268-0.526,4.499-1.379l7.013-4.465c1.89,0.996,3.873,1.839,5.94,2.495l1.941,7.753    c0.662,2.887,2.713,6.06,6.063,6.06h6.065c3.35,0,5.877-3.126,6.396-6.014l1.752-7.888c1.903-0.615,3.729-1.391,5.483-2.299    l6.837,4.357c1.23,0.853,2.873,1.379,4.499,1.379c1.565,0,3.121-0.488,4.279-1.646l4.292-4.286c2.364-2.368,1.572-6.058,0-8.564    l-4.216-7.02c0.847-1.664,1.581-3.396,2.17-5.192l7.881-1.966c2.89-0.662,6.064-2.715,6.064-6.058v-6.062    C98.518,43.869,95.394,41.346,92.501,40.823z M93.666,53.274c0,0.238-0.895,1.012-2.387,1.354l-7.881,1.966l-2.6,0.65    l-0.834,2.545c-0.493,1.494-1.126,3.009-1.886,4.501l-1.223,2.394l1.384,2.301l4.265,7.091c0.767,1.226,0.849,2.406,0.687,2.568    l-4.302,4.292c-0.207,0.208-0.7,0.227-0.843,0.227c-0.598,0-1.283-0.204-1.738-0.52l-0.072-0.052l-0.079-0.05l-6.841-4.359    l-2.357-1.502l-2.481,1.286c-1.563,0.809-3.157,1.476-4.744,1.991l-2.642,0.853L56.49,83.52l-1.749,7.887l-0.022,0.095    l-0.017,0.096c-0.182,1.007-1.097,2.024-1.622,2.024h-6.065c-0.238,0-1.015-0.891-1.358-2.386l-1.941-7.755l-0.659-2.628    l-2.586-0.817c-1.725-0.544-3.452-1.27-5.138-2.16l-2.494-1.314l-2.377,1.515l-7.013,4.467l-0.08,0.048l-0.076,0.054    c-0.455,0.315-1.136,0.52-1.734,0.52c-0.147,0-0.637-0.019-0.85-0.232l-4.289-4.28c-0.168-0.172-0.086-1.349,0.729-2.649    l4.436-7.385l1.365-2.272l-1.181-2.377c-0.715-1.434-1.279-2.8-1.728-4.171l-0.831-2.551l-2.605-0.65l-7.974-1.987    c-1.403-0.321-2.297-1.095-2.297-1.333v-6.062c0-0.521,1.021-1.438,2.027-1.619l0.095-0.017l0.096-0.019l7.782-1.728l2.736-0.608    l0.84-2.669c0.448-1.423,1.053-2.899,1.852-4.508l1.184-2.374l-1.368-2.275l-4.48-7.458c-0.763-1.221-0.849-2.399-0.677-2.567    l4.286-4.286c0.207-0.204,0.665-0.226,0.849-0.226c0.601,0,1.279,0.201,1.731,0.516l0.079,0.054l0.083,0.051l6.997,4.455    l2.376,1.508l2.492-1.311c1.657-0.872,3.379-1.594,5.119-2.151l2.578-0.821l0.655-2.622l1.966-7.862    c0.325-1.406,1.101-2.297,1.34-2.297h6.061c0.524,0,1.441,1.018,1.622,2.023l0.017,0.096l0.022,0.096l1.746,7.868l0.602,2.708    l2.642,0.853c1.612,0.522,3.229,1.199,4.807,2.018l2.482,1.289l2.36-1.502l6.825-4.347l0.079-0.051l0.076-0.054    c0.451-0.315,1.137-0.516,1.734-0.516c0.146,0,0.636,0.016,0.85,0.229l4.285,4.279c0.172,0.168,0.09,1.349-0.723,2.65    l-4.212,7.006l-1.387,2.307l1.225,2.396c0.858,1.677,1.511,3.252,2.001,4.817l0.84,2.679l2.739,0.608l7.783,1.728l0.095,0.019    l0.1,0.017c1.002,0.181,2.023,1.095,2.023,1.619V53.274z M50.042,30.582c-10.726,0-19.456,8.705-19.456,19.405    s8.73,19.405,19.456,19.405c10.729,0,19.456-8.705,19.456-19.405S60.771,30.582,50.042,30.582z M50.083,64.655    c-8.087,0-14.667-6.559-14.667-14.614s6.58-14.614,14.667-14.614c8.091,0,14.674,6.558,14.674,14.614S58.174,64.655,50.083,64.655    z"/>
	</g>
</g>
</svg>