<svg xmlns="http://www.w3.org/2000/svg" xmlns:xlink="http://www.w3.org/1999/xlink" version="1.1" id="Layer_1" x="0px" y="0px" width="100px" height="100px" viewBox="0 0 100 100" enable-background="new 0 0 100 100" xml:space="preserve">
<g>
	<path stroke="#000000" stroke-width="4" stroke-miterlimit="10" d="M50.001,49.984"/>
	<g>
		<path d="M79.636,28.404H67.001v0h-7.486c-1.382,0-2.5,1.12-2.5,2.5c0,1.381,1.118,2.5,2.5,2.5h12.366c0.002,0,0.003,0,0.005,0    h5.75v55.271H22.364V33.404h6.143h4.494h7.872c1.38,0,2.5-1.119,2.5-2.5c0-1.38-1.12-2.5-2.5-2.5h-7.872h-4.494h-8.143    c-1.65,0-3,1.35-3,3v59.271c0,1.65,1.35,3,3,3h59.271c1.65,0,3-1.35,3-3V31.404C82.636,29.754,81.286,28.404,79.636,28.404z"/>
		<path d="M34.761,23.297l12.801-9.126v46.96c0,1.348,1.093,2.439,2.439,2.439c1.348,0,2.439-1.092,2.439-2.439V14.17l12.802,9.126    c0.482,0.344,1.038,0.509,1.589,0.509c0.855,0,1.699-0.4,2.233-1.15c0.879-1.233,0.593-2.944-0.641-3.823l-16.832-12    c-0.951-0.679-2.229-0.679-3.182,0l-16.832,12c-1.232,0.879-1.52,2.59-0.641,3.823C31.815,23.888,33.526,24.175,34.761,23.297z"/>
	</g>
</g>
</svg>