<?xml version="1.0" encoding="UTF-8" standalone="no"?>
<svg width="67px" height="94px" viewBox="0 0 67 94" version="1.1" xmlns="http://www.w3.org/2000/svg" xmlns:xlink="http://www.w3.org/1999/xlink" xmlns:sketch="http://www.bohemiancoding.com/sketch/ns">
    <!-- Generator: Sketch Beta 3.3 (11472) - http://www.bohemiancoding.com/sketch -->
    <title>media icon</title>
    <desc>Created with Sketch Beta.</desc>
    <defs></defs>
    <g id="Page-1" stroke="none" stroke-width="1" fill="none" fill-rule="evenodd" sketch:type="MSPage">
        <g id="share-new" sketch:type="MSArtboardGroup" transform="translate(-1141.000000, -402.000000)" fill="#979DC4">
            <g id="Group" sketch:type="MSLayerGroup" transform="translate(430.000000, 329.000000)">
                <g id="music" transform="translate(602.334463, 0.000000)" sketch:type="MSShapeGroup">
                    <path d="M152.896234,137.462018 C152.79775,124.737055 152.970561,112.106737 152.948263,99.3149671 C155.014562,100.7105 157.320567,102.094899 159.522514,103.262174 C160.700602,103.88571 161.774632,104.44615 162.828222,104.976898 C165.75486,106.452229 168.609029,107.719715 171.708479,109.196902 C172.364417,109.50867 173.031505,109.813015 173.62984,109.920649 C174.707586,110.115504 174.707586,108.779355 174.729884,107.417225 C174.729884,102.666474 174.778197,98.5244123 174.729884,93.7699492 C174.720593,92.5525691 174.675997,92.0737824 173.713458,91.4131311 C170.907602,89.8116082 168.099887,88.2082295 165.295889,86.6048508 C162.125829,84.7954826 159.438896,82.9545663 156.566145,80.7035266 C153.762147,78.5100155 150.961865,76.3165044 148.157867,74.1211376 C146.643448,73.0986125 145.666043,73.6590528 145.673476,75.5983244 C145.688342,80.4140277 145.705065,85.2334425 145.719931,90.0491457 L145.627022,134.977152 C141.77315,132.108143 136.678012,130.356304 131.097888,130.356304 C119.068012,130.356304 109.312551,138.464129 109.312551,148.462977 C109.312551,158.46368 119.068012,166.571506 131.097888,166.571506 C139.179126,166.571506 146.513375,163.090096 149.997468,157.476415 C153.572612,151.714273 152.937114,142.741662 152.896234,137.462018 L152.896234,137.462018 L152.896234,137.462018 Z" id="media-icon"></path>
                </g>
            </g>
        </g>
    </g>
</svg>