<?xml version="1.0" encoding="UTF-8" standalone="no"?>
<svg width="66px" height="40px" viewBox="0 0 66 40" version="1.1" xmlns="http://www.w3.org/2000/svg" xmlns:xlink="http://www.w3.org/1999/xlink" xmlns:sketch="http://www.bohemiancoding.com/sketch/ns">
    <!-- Generator: Sketch Beta 3.2.2 (9983) - http://www.bohemiancoding.com/sketch -->
    <title>Switch Background</title>
    <desc>Created with Sketch Beta.</desc>
    <defs></defs>
    <g id="Advanced-Search-v1.1" stroke="none" stroke-width="1" fill="none" fill-rule="evenodd" sketch:type="MSPage">
        <g id="movie-title" sketch:type="MSArtboardGroup" transform="translate(-1175.000000, -1029.000000)" fill="#979797">
            <g id="Movie-" sketch:type="MSLayerGroup" transform="translate(191.000000, 387.000000)">
                <g id="Buttons" transform="translate(553.000000, 630.000000)" sketch:type="MSShapeGroup">
                    <g id="watch-button" transform="translate(206.000000, 0.000000)">
                        <g id="resolution-switch" transform="translate(190.000000, 12.000000)">
                            <g id="switch" transform="translate(68.000000, 20.000000) scale(-1, 1) translate(-68.000000, -20.000000) translate(35.000000, 0.000000)">
                                <path d="M20.0037013,0 C8.95596212,0 0,8.95187636 0,20 L0,20 C0,31.045695 8.95255014,40 20.0037013,40 L45.9962987,40 C57.0440379,40 66,31.0481236 66,20 L66,20 C66,8.954305 57.0474499,0 45.9962987,0 L20.0037013,0 Z M45.9411765,38.0645161 C55.9472771,38.0645161 64.0588235,29.9767573 64.0588235,20 C64.0588235,10.0232427 55.9472771,1.93548387 45.9411765,1.93548387 C35.9350758,1.93548387 27.8235294,10.0232427 27.8235294,20 C27.8235294,29.9767573 35.9350758,38.0645161 45.9411765,38.0645161 Z" id="Switch-Background"></path>
                            </g>
                        </g>
                    </g>
                </g>
            </g>
        </g>
    </g>
</svg>