<?xml version="1.0" encoding="UTF-8" standalone="no"?>
<svg width="34px" height="35px" viewBox="0 0 34 35" version="1.1" xmlns="http://www.w3.org/2000/svg" xmlns:xlink="http://www.w3.org/1999/xlink" xmlns:sketch="http://www.bohemiancoding.com/sketch/ns">
    <!-- Generator: Sketch Beta 3.2.2 (9983) - http://www.bohemiancoding.com/sketch -->
    <title>Shape</title>
    <desc>Created with Sketch Beta.</desc>
    <defs></defs>
    <g id="Page-1" stroke="none" stroke-width="1" fill="none" fill-rule="evenodd" sketch:type="MSPage">
        <g id="things-button" sketch:type="MSArtboardGroup" transform="translate(-21.000000, -21.000000)" fill="#979797">
            <g id="Oval-3-+-Shape" sketch:type="MSLayerGroup" transform="translate(6.000000, 6.000000)">
                <path d="M48.1914284,27.1380632 C48.1914284,27.1009364 48.1543015,27.0638095 48.1543015,27.0266826 C48.1543015,26.9895557 48.1171747,26.9524288 48.1171747,26.915302 C48.1171747,26.8781751 48.0800478,26.8410482 48.0429209,26.8039213 C48.0429209,26.7667945 48.005794,26.7296676 48.005794,26.7296676 C47.9686672,26.6554138 47.9315403,26.6182869 47.8572865,26.5440332 L37.6845221,16.3712688 C37.6473952,16.3341419 37.5731415,16.2598881 37.4988877,16.2227613 C37.4617608,16.2227613 37.4617608,16.1856344 37.424634,16.1856344 C37.3875071,16.1485075 37.3503802,16.1485075 37.3132533,16.1113806 C37.2761265,16.1113806 37.2389996,16.0742538 37.2018727,16.0742538 C37.1647458,16.0742538 37.127619,16.0371269 37.0904921,16.0371269 C37.0162383,16.0371269 36.9419846,16 36.8677308,16 L16.0766794,16 L16.0766794,16 L15.9652988,16 L15.8539182,16 L15.8167913,16 C15.7425375,16.0742538 15.7054107,16.1113806 15.6682838,16.1113806 L15.6682838,16.1113806 C15.59403,16.1485075 15.5197763,16.1856344 15.4455225,16.2227613 L15.4083957,16.2598881 L15.297015,16.3712688 L15.297015,16.3712688 C15.2598881,16.4083957 15.2598881,16.4083957 15.2227613,16.4455225 C15.2227613,16.4826494 15.1856344,16.4826494 15.1485075,16.5197763 C15.1485075,16.5569032 15.1113806,16.59403 15.1113806,16.6311569 C15.1113806,16.6682838 15.0742538,16.7054107 15.0742538,16.7425375 C15.0371269,16.7796644 15.0371269,16.8167913 15.0371269,16.8539182 C15.0371269,16.8910451 15,16.9281719 15,16.9652988 L15,17.1138063 L15,17.1880601 L15,37.6449695 L15,37.6449695 L15,37.7934771 L15,37.8677308 C15,37.9048577 15.0371269,37.9419846 15.0371269,37.9791114 C15.0371269,38.0162383 15.0371269,38.0533652 15.0742538,38.0533652 L15.1113806,38.0904921 C15.1485075,38.127619 15.1485075,38.2018727 15.1856344,38.2389996 L15.2227613,38.2761265 C15.2598881,38.3132533 15.297015,38.3503802 15.3341419,38.3875071 L15.3341419,38.3875071 L25.915302,48.5973984 C25.9524288,48.5973984 25.9524288,48.6345253 25.9895557,48.6345253 C26.0266826,48.6716521 26.0638095,48.708779 26.1009364,48.708779 C26.1380632,48.7459059 26.1751901,48.7459059 26.212317,48.7459059 C26.2494439,48.7459059 26.2865707,48.7830328 26.3236976,48.7830328 C26.3608245,48.7830328 26.3979514,48.8201597 26.4350783,48.8201597 C26.4722051,48.8201597 26.509332,48.8572865 26.509332,48.8572865 C26.5835858,48.8572865 26.6578395,48.8944134 26.7320933,48.8944134 L26.7320933,48.8944134 L47.1890027,48.8944134 C47.2632565,48.8944134 47.3375102,48.8944134 47.411764,48.8572865 C47.4488909,48.8572865 47.4860178,48.8201597 47.5231446,48.8201597 C47.5602715,48.8201597 47.5973984,48.7830328 47.6345253,48.7830328 C47.6716521,48.7830328 47.708779,48.7459059 47.7459059,48.708779 C47.6716521,48.7459059 47.708779,48.7459059 47.708779,48.7459059 C47.8201597,48.6716521 47.9315403,48.5602715 48.005794,48.4488909 C48.005794,48.411764 48.0429209,48.411764 48.0429209,48.3746371 C48.0800478,48.3375102 48.0800478,48.3003834 48.1171747,48.2632565 C48.1171747,48.2261296 48.1543015,48.1890027 48.1543015,48.1518759 C48.1543015,48.114749 48.1914284,48.0776221 48.1914284,48.0404952 C48.1914284,47.9662415 48.2285553,47.8919877 48.2285553,47.817734 L48.2285553,27.3608245 C48.2285553,27.2865707 48.2285553,27.212317 48.1914284,27.1380632 L48.1914284,27.1380632 Z M38.018664,19.8240684 L44.4416138,26.2470182 L38.018664,26.2470182 L38.018664,19.8240684 L38.018664,19.8240684 Z M25.5440332,45.1817257 L18.8611953,38.6845221 L25.5811601,38.6845221 L25.5811601,45.1817257 L25.5440332,45.1817257 Z M25.5440332,36.4569095 L17.1904858,36.4569095 L17.1904858,19.7869415 L25.5440332,27.8434739 L25.5440332,36.4569095 L25.5440332,36.4569095 Z M18.8611953,18.2647395 L35.7910514,18.2647395 L35.7910514,26.2470182 L27.103362,26.2470182 L18.8611953,18.2647395 L18.8611953,18.2647395 Z M35.7910514,28.4746308 L35.7910514,36.4569095 L27.7716458,36.4569095 L27.7716458,28.4746308 L35.7910514,28.4746308 L35.7910514,28.4746308 Z M27.7716458,46.7039276 L27.7716458,38.6845221 L36.4222083,38.6845221 L44.4044869,46.6668008 L27.7716458,46.6668008 L27.7716458,46.7039276 Z M46.0009427,45.1074719 L38.018664,37.1251933 L38.018664,28.4746308 L46.0009427,28.4746308 L46.0009427,45.1074719 L46.0009427,45.1074719 Z" id="Shape" sketch:type="MSShapeGroup" transform="translate(31.614278, 32.447207) rotate(-270.000000) translate(-31.614278, -32.447207) "></path>
            </g>
        </g>
    </g>
</svg>