<?xml version="1.0" encoding="utf-8"?>
<!-- Generator: Adobe Illustrator 16.0.0, SVG Export Plug-In . SVG Version: 6.00 Build 0)  -->
<!DOCTYPE svg PUBLIC "-//W3C//DTD SVG 1.1//EN" "http://www.w3.org/Graphics/SVG/1.1/DTD/svg11.dtd">
<svg version="1.1" id="Layer_1" xmlns="http://www.w3.org/2000/svg" xmlns:xlink="http://www.w3.org/1999/xlink" x="0px" y="0px"
	 width="88.8px" height="88.8px" viewBox="5.6 5.7 88.8 88.8" enable-background="new 5.6 5.7 88.8 88.8" xml:space="preserve">
<g id="Layer_1_1_">
	<path d="M50,5.7C25.5,5.7,5.6,25.6,5.6,50.1c0,24.5,19.9,44.4,44.4,44.4s44.4-19.9,44.4-44.4C94.4,25.6,74.5,5.7,50,5.7z
		 M78.3,77.4C70.8,85.2,60.8,89.5,50,89.5s-20.9-4.3-28.4-12.1L21,76.8c0,0,8.6-2,9.2-2.2c6-1.399,13.6-3.1,15.3-6.899
		c1-2.2,0.8-4.8-0.7-7.7c-6-11.4-7.2-19.4-3.6-25.4c0.9-1.5,2-2.7,3.4-3.6l0.2-0.1c3.2-1.9,6.101-1.7,8-1.1c0.9,0.3,1.7,0.7,2.4,1.1
		c1.5,0.9,2.7,2.2,3.6,3.7c3.601,5.9,2.4,14-3.6,25.4c-1.5,2.9-1.8,5.4-0.7,7.7c1.7,3.8,9.3,5.5,15.3,6.899
		c0.601,0.101,9.3,2.2,9.3,2.2L78.3,77.4z M82.5,72.3L72.6,70c-1-0.2-2.1-0.5-3.3-0.7c-6-1.3-9.6-2.2-10.3-3.7
		c-0.3-0.699-0.1-1.8,0.6-3.1c6.9-13,8-22.9,3.5-30.4C60.9,28.4,57.4,25.8,53,24.6c-1-0.2-2-0.3-3-0.3c-1.5,0-3.1,0.3-4.6,0.8
		c-0.4,0.1-1.4,0.6-1.5,0.6c-3,1.4-5.4,3.6-7.1,6.4c-4.5,7.5-3.4,17.5,3.4,30.4c0.7,1.4,0.9,2.4,0.6,3.1c-0.7,1.5-4.3,2.4-10.3,3.7
		c-1.1,0.2-13.2,3-13.2,3L17.2,72c-4.3-6.5-6.6-14-6.6-21.9C10.6,28,27.9,10.7,50,10.7c21.7,0,39.4,17.7,39.4,39.4
		c0,7.8-2.301,15.4-6.7,21.9L82.5,72.3z"/>
</g>
<g id="Layer_2" display="none">
</g>
</svg>
