<?xml version="1.0" encoding="UTF-8" standalone="no"?>
<svg width="65px" height="51px" viewBox="0 0 65 51" version="1.1" xmlns="http://www.w3.org/2000/svg" xmlns:xlink="http://www.w3.org/1999/xlink" xmlns:sketch="http://www.bohemiancoding.com/sketch/ns">
    <!-- Generator: Sketch Beta 3.3 (11556) - http://www.bohemiancoding.com/sketch -->
    <title>Shape</title>
    <desc>Created with Sketch Beta.</desc>
    <defs></defs>
    <g id="Page-1" stroke="none" stroke-width="1" fill="none" fill-rule="evenodd" sketch:type="MSPage">
        <path d="M60.026,21 L59,21 L59,11.502 C59,8.606 56.587,6 53.691,6 L48,6 L48,5.991 C48,3.095 45.769,0.739 42.873,0.739 L5.238,6.25 C2.377,6.292 0,8.632 0,11.502 L0,45.518 C0,48.413 2.606,51 5.502,51 L5.575,51 L7.143,51 L53.691,51 C56.587,51 59,48.413 59,45.518 L59,37 L60.026,37 C62.921,37 65,34.708 65,31.812 L65,26.318 C65,23.423 62.921,21 60.026,21 L60.026,21 Z M42.941,2.489 C44.703,2.526 46,4.22 46,5.991 L46,6 L17.555,6 L42.941,2.489 L42.941,2.489 Z M57,45.748 C57,47.544 55.544,49 53.748,49 L5.252,49 C3.456,49 2,47.544 2,45.748 L2,11.252 C2,9.456 3.456,8 5.252,8 L53.748,8 C55.544,8 57,9.456 57,11.252 L57,21 L42.53,21 C39.634,21 37,23.423 37,26.319 L37,31.813 C37,34.708 39.634,37 42.53,37 L57,37 L57,45.748 L57,45.748 Z M63,31.748 C63,33.544 61.544,35 59.748,35 L42.252,35 C40.456,35 39,33.544 39,31.748 L39,26.252 C39,24.456 40.456,23 42.252,23 L59.748,23 C61.544,23 63,24.456 63,26.252 L63,31.748 L63,31.748 Z M44,31.001 C45.1051218,31.001 46.001,30.1051218 46.001,29 C46.001,27.8948782 45.1051218,26.999 44,26.999 C42.8948782,26.999 41.999,27.8948782 41.999,29 C41.999,30.1051218 42.8948782,31.001 44,31.001 Z" id="Shape" fill="#000000" sketch:type="MSShapeGroup"></path>
    </g>
</svg>