<?xml version="1.0" encoding="UTF-8"?>
<svg width="36px" height="36px" viewBox="0 0 36 36" version="1.1" xmlns="http://www.w3.org/2000/svg" xmlns:xlink="http://www.w3.org/1999/xlink" xmlns:sketch="http://www.bohemiancoding.com/sketch/ns">
    <!-- Generator: Sketch 3.3.1 (12002) - http://www.bohemiancoding.com/sketch -->
    <title>album</title>
    <desc>Created with Sketch.</desc>
    <defs></defs>
    <g id="Page-1" stroke="none" stroke-width="1" fill="none" fill-rule="evenodd" sketch:type="MSPage">
        <path d="M2.9020928,8.4886452 L0.5256537,8.4886452 L0.5256537,35.5 L27.5371503,35.5 L27.5371503,33.1232774 L2.9020928,33.1232774 L2.9020928,8.4886452 L2.9020928,8.4886452 Z M6.9572189,4.4047472 L4.5807798,4.4047472 L4.5807798,31.4159604 L31.5924181,31.4159604 L31.5924181,29.0393795 L6.9572189,29.0393795 L6.9572189,4.4047472 L6.9572189,4.4047472 Z M8.462708,0.5 L8.462708,5.535494 L8.462708,27.5113548 L30.4388523,27.5113548 L35.4743463,27.5113548 L35.4743463,0.5 L8.462708,0.5 L8.462708,0.5 Z M24.4163482,17.7745343 C24.3953809,15.0764681 24.4321727,12.3984691 24.4274253,9.6862377 C24.8673442,9.9821318 25.3582968,10.275665 25.8270953,10.5231615 C26.0779123,10.6553695 26.3065752,10.7741993 26.5308863,10.8867335 C27.1539728,11.1995471 27.7616306,11.4682914 28.4215089,11.7814984 C28.5611594,11.8476024 28.7031835,11.9121325 28.8305701,11.9349541 C29.0600242,11.9762691 29.0600242,11.6929663 29.0647715,11.4041547 C29.0647715,10.3968557 29.0750574,9.5186168 29.0647715,8.5105308 C29.0627935,8.2524104 29.0532988,8.1508935 28.8483726,8.010816 C28.2510007,7.6712461 27.6532333,7.3312826 27.0562571,6.9913192 C26.3813456,6.6076799 25.8092928,6.2173515 25.197679,5.7400649 C24.6007027,5.274976 24.0045177,4.8098872 23.4075415,4.3444048 C23.0851189,4.1275994 22.8770278,4.2464293 22.8786103,4.6576119 C22.8817752,5.6786826 22.8853356,6.7005403 22.8885005,7.721611 L22.86872,17.2476697 C22.0482238,16.6393555 20.9634599,16.267914 19.7754416,16.267914 C17.2142593,16.267914 15.1373042,17.9870115 15.1373042,20.1070612 C15.1373042,22.2275044 17.2142593,23.9466019 19.7754416,23.9466019 C21.4959516,23.9466019 23.0574262,23.2084406 23.7991959,22.0181751 C24.5603505,20.7964315 24.4250517,18.8939741 24.4163482,17.7745343 L24.4163482,17.7745343 L24.4163482,17.7745343 Z" id="album" fill="#979797" sketch:type="MSShapeGroup"></path>
    </g>
</svg>