<?xml version="1.0" standalone="no"?>
<?xml-stylesheet type="text/css" href="../css/alexandria-svg.css"?>
<!DOCTYPE svg PUBLIC "-//W3C//DTD SVG 1.1//EN" 
                     "http://www.w3.org/Graphics/SVG/1.1/DTD/svg11.dtd">
                    <svg xmlns="http://www.w3.org/2000/svg" xmlns:xlink="http://www.w3.org/1999/xlink" width="94px" height="94px" viewBox="0 0 94 94" version="1.1" class="replaced-svg">
                        <title>Movie icon</title>
                        <g id="g-search-movies-icon-1" stroke="none" stroke-width="1" fill="none" fill-rule="evenodd" type="MSPage">
                            <g id="g-search-movies-icon-2" type="MSArtboardGroup" transform="translate(-525.000000, -402.000000)" fill="#97B3C5">
                                <g id="g-search-movies-icon-3" type="MSLayerGroup" transform="translate(430.000000, 329.000000)">
                                    <g id="g-search-movies-icon-4" type="MSShapeGroup">
                                        <path d="M172.987284,73.6303463 L174.953934,73.6303463 C176.088064,73.6303463 175.964115,394599 175.964115,74.672441 L175.964115,76.4065113 C175.964115,77.134635 176.560101,77.7315931 177.289332,77.7315931 L182.699687,77.7315931 C183.427885,77.7315931 184.024904,77.1356678 184.024904,76.4065113 L184.024904,74.4101099 C184.024904,73.5797391 183.916449,73.6313791 184.753102,73.6313791 L187.378745,73.6313791 C188.235023,73.6313791 188.132766,73.5745751 188.132766,74.4276675 L188.132766,164.171747 C188.132766,166.957207 188.232958,166.548218 185.461674,166.548218 L182.749266,166.548218 L182.718279,166.548218 L177.307924,166.548218 L177.273838,166.548218 L174.373442,166.548218 C171.921326,166.548218 171.964708,166.94378 171.964708,164.474357 C171.964708,164.312207 171.950247,164.156255 171.917194,164.01063 L171.917194,162.429414 C171.917194,160.209928 170.101348,158.394266 167.881635,158.394266 L115.421436,158.394266 C113.201724,158.394266 111.385877,160.209928 111.385877,162.429414 L111.385877,165.08061 L111.385877,166.101016 C111.340429,166.592629 111.095631,166.547185 110.005916,166.547185 L108.6807,166.547185 C107.172659,166.547185 107.378207,166.619481 107.378207,165.117791 L107.378207,163.789611 C107.378207,163.060454 106.782221,162.464529 106.05299,162.464529 L100.642635,162.464529 C99.914437,162.464529 99.317418,163.060454 99.317418,163.789611 L99.317418,164.701573 C99.317418,166.306543 99.7316128,166.547185 98.0851627,166.547185 L96.6845438,166.547185 C94.8005256,166.547185 95.2219507,166.395364 95.2281481,164.546653 C95.3562283,135.127359 95.2198849,105.101812 95.2178191,75.7135029 C95.2178191,73.3545888 95.0690808,73.6303463 97.4375314,73.6303463 L100.404034,73.6303463 C100.47737,73.6427399 100.548641,73.6489367 100.624043,73.6489367 L106.034398,73.6489367 C106.1098,73.6489367 106.186235,73.6437727 106.259571,73.6303463 L109.471905,73.6303463 C111.028492,73.6303463 111.335265,73.5301647 111.385877,74.3047644 L111.385877,75.5823373 L111.385877,77.6603299 C111.385877,79.879816 113.201724,81.6954775 115.421436,81.6954775 L167.883701,81.6954775 C170.103413,81.6954775 171.91926,79.879816 171.91926,77.6603299 L171.91926,75.1093152 C171.95128,74.9151489 171.966774,74.708589 171.966774,74.4824059 C171.965741,73.4527048 171.967807,73.6303463 172.987284,73.6303463 L172.987284,73.6303463 L172.987284,73.6303463 Z M111.385877,89.9072663 L111.385877,150.263036 C111.385877,152.53726 113.251303,154.397332 115.519562,154.397332 L167.832056,154.397332 C170.101348,154.397332 171.966774,152.532096 171.966774,150.263036 L171.966774,89.9062335 C171.966774,87.637173 170.106512,85.7719371 167.832056,85.7719371 L115.519562,85.7719371 C113.245106,85.7729699 111.385877,87.632009 111.385877,89.9072663 Z M177.308957,134.243283 C176.580759,134.243283 175.98374,134.839208 175.98374,135.568365 L175.98374,140.978168 C175.98374,141.707325 176.579726,142.30325 177.308957,142.30325 L182.719312,142.30325 C183.44751,142.30325 184.044529,141.707325 184.044529,140.978168 L184.044529,135.568365 C184.044529,134.839208 183.448543,134.243283 182.719312,134.243283 L177.308957,134.243283 L177.308957,134.243283 Z M177.356471,150.372513 C176.62724,150.372513 176.031254,150.968438 176.031254,151.697594 L176.031254,157.107398 C176.031254,157.836555 176.62724,158.43248 177.356471,158.43248 L182.766826,158.43248 C183.496056,158.43248 184.092043,157.836555 184.092043,157.107398 L184.092043,151.697594 C184.092043,150.968438 183.496056,150.372513 182.766826,150.372513 L177.356471,150.372513 L177.356471,150.372513 Z M177.290365,101.976561 C176.562167,101.976561 175.965148,102.572486 175.965148,103.301643 L175.965148,108.711447 C175.965148,109.440603 176.561134,110.036528 177.290365,110.036528 L182.70072,110.036528 C183.428918,110.036528 184.025937,109.440603 184.025937,108.711447 L184.025937,103.301643 C184.025937,102.572486 183.429951,101.976561 182.70072,101.976561 L177.290365,101.976561 L177.290365,101.976561 Z M177.336845,118.105791 C176.607615,118.105791 176.011629,118.701716 176.011629,119.430873 L176.011629,124.840676 C176.011629,125.569833 176.607615,126.165758 177.336845,126.165758 L182.747201,126.165758 C183.475398,126.165758 184.072417,125.569833 184.072417,124.840676 L184.072417,119.430873 C184.072417,118.701716 183.476431,118.105791 182.747201,118.105791 L177.336845,118.105791 L177.336845,118.105791 Z M177.336845,85.8008555 C176.607615,85.8008555 176.011629,86.3967808 176.011629,87.1259373 L176.011629,92.535741 C176.011629,93.2638646 176.607615,93.8608228 177.336845,93.8608228 L182.747201,93.8608228 C183.475398,93.8608228 184.072417,93.2648974 184.072417,92.535741 L184.072417,87.1259373 C184.072417,86.3967808 183.476431,85.8008555 182.747201,85.8008555 L177.336845,85.8008555 L177.336845,85.8008555 Z M100.642635,130.160627 C99.914437,130.160627 99.317418,130.756552 99.317418,131.485708 L99.317418,136.895512 C99.317418,137.624668 99.9134041,138.220594 100.642635,138.220594 L106.05299,138.220594 C106.782221,138.220594 107.378207,137.624668 107.378207,136.895512 L107.378207,131.485708 C107.378207,130.756552 106.782221,130.160627 106.05299,130.160627 L100.642635,130.160627 L100.642635,130.160627 L100.642635,130.160627 Z M100.689116,146.289856 C99.9609177,146.289856 99.3638988,146.885782 99.3638988,147.614938 L99.3638988,153.024742 C99.3638988,153.753898 99.9598848,154.349823 100.689116,154.349823 L106.099471,154.349823 C106.827668,154.349823 107.424687,153.753898 107.424687,153.024742 L107.424687,147.614938 C107.424687,146.885782 106.828701,146.289856 106.099471,146.289856 L100.689116,146.289856 L100.689116,146.289856 Z M100.62301,97.8939048 C99.8937789,97.8939048 99.2977929,98.4898301 99.2977929,99.2189865 L99.2977929,104.62879 C99.2977929,105.357947 99.8937789,105.953872 100.62301,105.953872 L106.033365,105.953872 C106.762595,105.953872 107.358582,105.357947 107.358582,104.62879 L107.358582,99.2189865 C107.358582,98.4898301 106.762595,97.8939048 106.033365,97.8939048 L100.62301,97.8939048 L100.62301,97.8939048 L100.62301,97.8939048 Z M100.66949,114.023134 C99.9412925,114.023134 99.3442736,114.61906 99.3442736,115.348216 L99.3442736,120.75802 C99.3442736,121.487176 99.9402596,122.083102 100.66949,122.083102 L106.079845,122.083102 C106.809076,122.083102 107.405062,121.487176 107.405062,120.75802 L107.405062,115.348216 C107.405062,114.61906 106.809076,114.023134 106.079845,114.023134 L100.66949,114.023134 L100.66949,114.023134 Z M100.66949,81.7192319 C99.9412925,81.7192319 99.3442736,82.3151572 99.3442736,83.0443137 L99.3442736,88.4541174 C99.3442736,89.1822411 99.9402596,89.7791992 100.66949,89.7791992 L106.079845,89.7791992 C106.809076,89.7791992 107.405062,89.1832739 107.405062,88.4541174 L107.405062,83.0443137 C107.405062,82.3151572 106.809076,81.7192319 106.079845,81.7192319 L100.66949,81.7192319 L100.66949,81.7192319 Z" id="path-search-movies-icon-1"></path>
                                    </g>
                                </g>
                            </g>
                        </g>
                    </svg>