<?xml version="1.0" encoding="UTF-8" standalone="no"?>
<svg width="66px" height="66px" viewBox="0 0 66 66" version="1.1" xmlns="http://www.w3.org/2000/svg" xmlns:xlink="http://www.w3.org/1999/xlink" xmlns:sketch="http://www.bohemiancoding.com/sketch/ns">
    <!-- Generator: Sketch 3.3.3 (12081) - http://www.bohemiancoding.com/sketch -->
    <title>icons/paywall-download</title>
    <desc>Created with Sketch.</desc>
    <defs></defs>
    <g id="Page-1" stroke="none" stroke-width="1" fill="none" fill-rule="evenodd" sketch:type="MSPage">
        <g id="Desktop-HD-Copy" sketch:type="MSArtboardGroup" transform="translate(-537.000000, -291.000000)" fill="#000000">
            <g id="icons/paywall-download" sketch:type="MSLayerGroup" transform="translate(537.000000, 291.000000)">
                <path d="M33,66 C14.8,66 0,51.2 0,33 C0,14.8 14.8,0 33,0 C51.2,0 66,14.8 66,33 C66,51.2 51.2,66 33,66 L33,66 Z M33,2 C15.9,2 2,15.9 2,33 C2,50.1 15.9,64 33,64 C50.1,64 64,50.1 64,33 C64,15.9 50.1,2 33,2 L33,2 Z" id="download" sketch:type="MSShapeGroup"></path>
                <path d="M34.3,43 L34.3,15 L32.3,15 L32.3,43.6 L24.7,36 L23.3,37.4 L33,47.1 L42.7,37.4 L41.3,36 L34.3,43 L34.3,43 Z M43.3,48 L43.3,50 L23.3,50 L23.3,48 L43.3,48 Z" id="Rectangle-path" sketch:type="MSShapeGroup"></path>
            </g>
        </g>
    </g>
</svg>