<?xml version="1.0" encoding="UTF-8" standalone="no"?>
<svg width="66px" height="66px" viewBox="0 0 66 66" version="1.1" xmlns="http://www.w3.org/2000/svg" xmlns:xlink="http://www.w3.org/1999/xlink" xmlns:sketch="http://www.bohemiancoding.com/sketch/ns">
    <!-- Generator: Sketch 3.3.3 (12081) - http://www.bohemiancoding.com/sketch -->
    <title>icons/paywall-play </title>
    <desc>Created with Sketch.</desc>
    <defs></defs>
    <g id="Page-1" stroke="none" stroke-width="1" fill="none" fill-rule="evenodd" sketch:type="MSPage">
        <g id="Desktop-HD-Copy" sketch:type="MSArtboardGroup" transform="translate(-385.000000, -291.000000)">
            <g id="icons/paywall-play-" sketch:type="MSLayerGroup" transform="translate(385.000000, 291.000000)">
                <path d="M33,66 C14.8,66 0,51.2 0,33 C0,14.8 14.8,0 33,0 C51.2,0 66,14.8 66,33 C66,51.2 51.2,66 33,66 L33,66 Z M33,2 C15.9,2 2,15.9 2,33 C2,50.1 15.9,64 33,64 C50.1,64 64,50.1 64,33 C64,15.9 50.1,2 33,2 L33,2 Z" id="stream" fill="#000000" sketch:type="MSShapeGroup"></path>
                <polygon id="Triangle-2" stroke="#000000" stroke-width="2" sketch:type="MSShapeGroup" transform="translate(37.000000, 33.000000) rotate(90.000000) translate(-37.000000, -33.000000) " points="37 19 51 47 23 47 "></polygon>
            </g>
        </g>
    </g>
</svg>