<?xml version="1.0" encoding="UTF-8" standalone="no"?>
<svg width="17px" height="19px" viewBox="0 0 17 19" version="1.1" xmlns="http://www.w3.org/2000/svg" xmlns:xlink="http://www.w3.org/1999/xlink" xmlns:sketch="http://www.bohemiancoding.com/sketch/ns">
    <!-- Generator: Sketch 3.3.3 (12081) - http://www.bohemiancoding.com/sketch -->
    <title>icons/share</title>
    <desc>Created with Sketch.</desc>
    <defs></defs>
    <g id="Page-1" stroke="none" stroke-width="1" fill="none" fill-rule="evenodd" sketch:type="MSPage">
        <g id="Desktop-HD" sketch:type="MSArtboardGroup" transform="translate(-690.000000, -132.000000)" fill="#4A4A4A">
            <g id="song-view" sketch:type="MSLayerGroup" transform="translate(348.000000, 93.000000)">
                <path d="M355.810345,52.5428916 C355.128966,52.5428916 354.51931,52.8139759 354.053103,53.2386747 L347.66069,49.4886747 C347.705517,49.2808434 347.741379,49.073012 347.741379,48.8561446 C347.741379,48.6392771 347.705517,48.4314458 347.66069,48.2236145 L353.981379,44.509759 C354.465517,44.9615663 355.102069,45.2416867 355.810345,45.2416867 C357.298621,45.2416867 358.5,44.0308434 358.5,42.5308434 C358.5,41.0308434 357.298621,39.82 355.810345,39.82 C354.322069,39.82 353.12069,41.0308434 353.12069,42.5308434 C353.12069,42.7477108 353.156552,42.9555422 353.201379,43.1633735 L346.88069,46.8772289 C346.396552,46.4254217 345.76,46.1453012 345.051724,46.1453012 C343.563448,46.1453012 342.362069,47.3561446 342.362069,48.8561446 C342.362069,50.3561446 343.563448,51.566988 345.051724,51.566988 C345.76,51.566988 346.396552,51.2868675 346.88069,50.8350602 L353.264138,54.5940964 C353.21931,54.7838554 353.192414,54.9826506 353.192414,55.1814458 C353.192414,56.6362651 354.366897,57.82 355.810345,57.82 C357.253793,57.82 358.428276,56.6362651 358.428276,55.1814458 C358.428276,53.7266265 357.253793,52.5428916 355.810345,52.5428916 L355.810345,52.5428916 Z" id="icons/share" sketch:type="MSShapeGroup"></path>
            </g>
        </g>
    </g>
</svg>