<?xml version="1.0" encoding="UTF-8"?>
<svg width="11px" height="27px" viewBox="0 0 11 27" version="1.1" xmlns="http://www.w3.org/2000/svg" xmlns:xlink="http://www.w3.org/1999/xlink" xmlns:sketch="http://www.bohemiancoding.com/sketch/ns">
    <!-- Generator: Sketch 3.3.1 (12002) - http://www.bohemiancoding.com/sketch -->
    <title>song</title>
    <desc>Created with Sketch.</desc>
    <defs></defs>
    <g id="Page-1" stroke="none" stroke-width="1" fill="none" fill-rule="evenodd" sketch:type="MSPage">
        <path d="M10.6805525,15.4294418 C10.6808384,15.4039942 10.6845555,15.3791185 10.6845555,15.3536709 L10.6771214,15.3536709 C10.6388071,14.2111028 10.2059121,13.1717547 9.43905341,12.4146175 C8.70307485,11.6877887 7.71004711,11.2546078 6.60607931,11.166542 L6.60607931,8.45165617 C9.56657725,5.87687502 9.38415523,3.06791886 9.32639779,2.58012576 C9.29637533,1.42812206 8.34966788,0.5 7.19051601,0.5 C6.04137156,0.5 5.0697884,1.4764439 5.03662081,2.64560326 L5.03347561,2.64560326 L5.03347561,7.65620463 C3.76567109,8.51970704 -0.0357409734,11.436458 0.00285925383,15.3533849 L0,15.3533849 C0,15.4823384 0.010293434,15.6090045 0.0203008558,15.7353847 C0.0214445707,15.7531122 0.0211586921,15.769696 0.0225882856,15.7874236 L0.022874231,15.7874236 C0.245612088,18.3064488 2.38235164,20.305657 5.03318966,20.4514803 L5.03318966,23.9732547 C5.03318966,24.4993622 4.60515548,24.9273963 4.0790481,24.9273963 C3.55294065,24.9273963 3.12490654,24.4993622 3.12490654,23.9732547 C3.12490654,23.4468614 3.55294065,23.0188273 4.0790481,23.0188273 L4.0790481,21.4462235 C2.68572123,21.4462235 1.55230284,22.5799279 1.55230284,23.9732547 C1.55230284,25.3665816 2.68572123,26.5 4.0790481,26.5 C5.4160472,26.5 6.51057935,25.4557912 6.59750148,24.1405226 L6.60579336,24.1405226 L6.60579336,20.3162363 C8.88921396,19.7832666 10.5987771,17.8455329 10.6756917,15.5160779 L10.6842696,15.5160779 C10.6845555,15.4869133 10.6811244,15.4583205 10.6805525,15.4294418 L10.6805525,15.4294418 L10.6805525,15.4294418 Z M7.19023007,2.07288958 C7.50131971,2.07288958 7.75436592,2.32593585 7.75436592,2.63702543 L7.76351564,2.75654333 C7.77495272,2.83746094 7.97853343,4.40606168 6.60579336,6.18138825 L6.60579336,2.70707778 C6.60579336,2.38111991 6.8897198,2.07288958 7.19023007,2.07288958 L7.19023007,2.07288958 L7.19023007,2.07288958 Z M1.58890159,15.6584701 L1.58975936,15.6584701 C1.37416973,13.0382264 3.58267718,10.797695 5.03318966,9.62253113 L5.03318966,11.2829147 C3.19066998,11.7215282 2.01293273,13.2255092 2.01293273,15.2916245 C2.01293273,15.651036 2.05868119,16.0081599 2.14846258,16.353275 L3.67017113,15.9561211 C3.61384329,15.7408173 3.58553643,15.5172216 3.58553643,15.2916245 C3.58553643,14.1127436 4.11078611,13.2806933 5.03318966,12.92071 L5.03318966,18.8794484 C3.20639598,18.7393437 1.74559013,17.3726081 1.58890159,15.6584701 L1.58890159,15.6584701 L1.58890159,15.6584701 Z M6.60579336,18.6850174 L6.60579336,12.7451502 C7.28458631,12.8223508 7.89189725,13.0968416 8.33365594,13.5331677 C8.82316458,14.0166718 9.08821982,14.6700171 9.10794885,15.4254388 C9.07563895,16.9297057 8.04086573,18.2035147 6.60579336,18.6850174 L6.60579336,18.6850174 L6.60579336,18.6850174 Z" id="song" fill="#979797" sketch:type="MSShapeGroup"></path>
    </g>
</svg>