<?xml version="1.0" standalone="no"?>
<?xml-stylesheet type="text/css" href="../css/alexandria-svg.css"?>
<!DOCTYPE svg PUBLIC "-//W3C//DTD SVG 1.1//EN" 
                     "http://www.w3.org/Graphics/SVG/1.1/DTD/svg11.dtd">
	<svg xmlns="http://www.w3.org/2000/svg" xmlns:xlink="http://www.w3.org/1999/xlink" width="63px" height="63px" viewBox="0 0 63 63" version="1.1" class="replaced-svg"><title>tip icon</title><g stroke="none" stroke-width="1" fill="none" fill-rule="evenodd" type="MSPage"><g type="MSArtboardGroup" transform="translate(-1013.000000, -310.000000)" fill="#979797"><g type="MSLayerGroup" transform="translate(323.000000, 309.000000)"><g transform="translate(690.000000, 1.000000)" type="MSShapeGroup"><path d="M31.4995959,0 C14.102644,0 0,14.102644 0,31.4995959 C0,41.4269715 4.59715968,50.2761806 11.7733518,56.0501097 L0,63 L31.4995959,63 C48.8965477,63 63,48.897356 63,31.4995959 C63,14.102644 48.8949313,0 31.4995959,0 L31.4995959,0 Z M31.4987877,60.1970904 L10.4543355,60.1970904 L17.115691,56.3289458 C8.55986607,51.3608128 2.80210137,42.1058769 2.80210137,31.4995959 C2.80210137,15.6503868 15.6495786,2.80290959 31.4987877,2.80290959 C47.3479968,2.80290959 60.1962822,15.6503868 60.1962822,31.4995959 C60.1962822,47.3479968 47.3479968,60.1970904 31.4987877,60.1970904 L31.4987877,60.1970904 Z M28.206,16.672 C28.206,17.1760025 28.0260018,17.5899984 27.666,17.914 C27.3059982,18.2380016 26.9100022,18.4 26.478,18.4 C26.0459978,18.4 25.6500018,18.2380016 25.29,17.914 C24.9299982,17.5899984 24.75,17.1760025 24.75,16.672 C24.75,16.1679975 24.9299982,15.7540016 25.29,15.43 C25.6500018,15.1059984 26.0459978,14.944 26.478,14.944 C26.9100022,14.944 27.3059982,15.1059984 27.666,15.43 C28.0260018,15.7540016 28.206,16.1679975 28.206,16.672 L28.206,16.672 Z M27.666,40 L25.29,40 L25.29,23.152 L27.666,23.152 L27.666,40 Z M48.762,31.576 C48.762,30.6399953 48.6120015,29.7640041 48.312,28.948 C48.0119985,28.1319959 47.5860028,27.424003 47.034,26.824 C46.4819972,26.223997 45.8160039,25.7500017 45.036,25.402 C44.2559961,25.0539983 43.3740049,24.88 42.39,24.88 C41.4059951,24.88 40.5060041,25.0539983 39.69,25.402 C38.8739959,25.7500017 38.166003,26.223997 37.566,26.824 C36.965997,27.424003 36.4980017,28.1319959 36.162,28.948 C35.8259983,29.7640041 35.658,30.6399953 35.658,31.576 C35.658,32.5120047 35.8259983,33.3879959 36.162,34.204 C36.4980017,35.0200041 36.965997,35.727997 37.566,36.328 C38.166003,36.928003 38.8739959,37.4019983 39.69,37.75 C40.5060041,38.0980017 41.4059951,38.272 42.39,38.272 C43.3740049,38.272 44.2559961,38.0980017 45.036,37.75 C45.8160039,37.4019983 46.4819972,36.928003 47.034,36.328 C47.5860028,35.727997 48.0119985,35.0200041 48.312,34.204 C48.6120015,33.3879959 48.762,32.5120047 48.762,31.576 L48.762,31.576 Z M33.39,23.152 L35.766,23.152 L35.766,25.96 L35.838,25.96 C36.2220019,25.3839971 36.6779974,24.892002 37.206,24.484 C37.7340026,24.075998 38.2859971,23.7400013 38.862,23.476 C39.4380029,23.2119987 40.0319969,23.0200006 40.644,22.9 C41.2560031,22.7799994 41.8379972,22.72 42.39,22.72 C43.7100066,22.72 44.9159945,22.9419978 46.008,23.386 C47.1000055,23.8300022 48.041996,24.447996 48.834,25.24 C49.626004,26.032004 50.2439978,26.9679946 50.688,28.048 C51.1320022,29.1280054 51.354,30.3039936 51.354,31.576 C51.354,32.8480064 51.1320022,34.0239946 50.688,35.104 C50.2439978,36.1840054 49.626004,37.119996 48.834,37.912 C48.041996,38.704004 47.1000055,39.3219978 46.008,39.766 C44.9159945,40.2100022 43.7100066,40.432 42.39,40.432 C41.8379972,40.432 41.2560031,40.3720006 40.644,40.252 C40.0319969,40.1319994 39.4380029,39.9400013 38.862,39.676 C38.2859971,39.4119987 37.7340026,39.076002 37.206,38.668 C36.6779974,38.259998 36.2220019,37.7680029 35.838,37.192 L35.766,37.192 L35.766,50.368 L33.39,50.368 L33.39,23.152 Z M21.51,25.312 L16.65,25.312 L16.65,35.248 C16.65,35.8720031 16.7099994,36.381998 16.83,36.778 C16.9500006,37.174002 17.1179989,37.4799989 17.334,37.696 C17.5500011,37.9120011 17.8079985,38.0619996 18.108,38.146 C18.4080015,38.2300004 18.7379982,38.272 19.098,38.272 C19.506002,38.272 19.9259978,38.2120006 20.358,38.092 C20.7900022,37.9719994 21.1859982,37.816001 21.546,37.624 L21.654,39.82 C20.7659956,40.228002 19.6980062,40.432 18.45,40.432 C17.9939977,40.432 17.5200025,40.3720006 17.028,40.252 C16.5359975,40.1319994 16.086002,39.9040017 15.678,39.568 C15.269998,39.2319983 14.9340013,38.7760029 14.67,38.2 C14.4059987,37.6239971 14.274,36.8680047 14.274,35.932 L14.274,25.312 L10.71,25.312 L10.71,23.152 L14.274,23.152 L14.274,18.4 L16.65,18.4 L16.65,23.152 L21.51,23.152 L21.51,25.312 Z"></path></g></g></g></g></svg>