<?xml version="1.0" encoding="UTF-8"?>
<svg width="10px" height="10px" viewBox="0 0 10 10" version="1.1" xmlns="http://www.w3.org/2000/svg" xmlns:xlink="http://www.w3.org/1999/xlink" xmlns:sketch="http://www.bohemiancoding.com/sketch/ns">
    <!-- Generator: Sketch 3.3.1 (12002) - http://www.bohemiancoding.com/sketch -->
    <title>this shit costs you</title>
    <desc>Created with Sketch.</desc>
    <defs></defs>
    <g id="Page-1" stroke="none" stroke-width="1" fill="none" fill-rule="evenodd" sketch:type="MSPage">
        <g id="this-shit-costs-you" sketch:type="MSLayerGroup" transform="translate(0.000000, 0.016883)">
            <path d="M5,10 C7.76142375,10 10,7.76142375 10,5 C10,2.23857625 7.76142375,0 5,0 C2.23857625,0 0,2.23857625 0,5 C0,7.76142375 2.23857625,10 5,10 Z" id="Oval-47" fill="#599C11" sketch:type="MSShapeGroup"></path>
            <path d="M5.49914427,4.41354205 C4.74628166,4.14219375 4.43981278,3.94958803 4.43981278,3.66945959 C4.43981278,3.42445173 4.62363836,3.17052436 5.19267539,3.17052436 C5.8228947,3.17052436 6.23430721,3.37177086 6.45311401,3.47685386 L6.71568216,2.48762418 C6.40935265,2.34769932 6.01550042,2.21627588 5.43768325,2.19885496 L5.43768325,1.42857143 L4.579877,1.42857143 L4.579877,2.26017661 C3.64318882,2.43522204 3.10049223,3.03924028 3.10049223,3.81830395 C3.10049223,4.66746942 3.73949168,5.10508301 4.6760405,5.42019266 C5.33260024,5.63899945 5.61286805,5.84916547 5.61286805,6.18169605 C5.61286805,6.52300677 5.27141796,6.72439264 4.76370258,6.72439264 C4.19466556,6.72439264 3.6783094,6.54056706 3.31065824,6.33918119 L3.04795072,7.36339209 C3.38062067,7.54721767 3.94951833,7.71348296 4.53611565,7.73982339 L4.53611565,8.57142857 L5.40270204,8.57142857 L5.40270204,7.66986097 C6.40935265,7.50359568 6.95204924,6.83825579 6.95204924,6.05919212 C6.95218861,5.26270752 6.54077609,4.78119321 5.49914427,4.41354205 L5.49914427,4.41354205 Z" id="Shape" fill="#FFFFFF" sketch:type="MSShapeGroup"></path>
        </g>
    </g>
</svg>