<?xml version="1.0" encoding="utf-8"?>
<!-- Generator: Adobe Illustrator 16.0.0, SVG Export Plug-In . SVG Version: 6.00 Build 0)  -->
<!DOCTYPE svg PUBLIC "-//W3C//DTD SVG 1.1//EN" "http://www.w3.org/Graphics/SVG/1.1/DTD/svg11.dtd">
<svg version="1.1" id="Your_Icon" xmlns="http://www.w3.org/2000/svg" xmlns:xlink="http://www.w3.org/1999/xlink" x="0px" y="0px"
	 width="28.805px" height="28.804px" viewBox="37.189 20.113 28.805 28.804" enable-background="new 37.189 20.113 28.805 28.804"
	 xml:space="preserve">
<g>
	<path d="M51.592,42.95c-0.614,0-1.111-0.497-1.111-1.111v-14.65c0-0.614,0.497-1.111,1.111-1.111s1.111,0.497,1.111,1.111v14.65
		C52.703,42.453,52.206,42.95,51.592,42.95z"/>
</g>
<g>
	<path d="M58.917,35.626H44.268c-0.614,0-1.111-0.497-1.111-1.111c0-0.614,0.497-1.111,1.111-1.111h14.649
		c0.614,0,1.111,0.497,1.111,1.111C60.028,35.129,59.531,35.626,58.917,35.626z"/>
</g>
<g>
	<path d="M51.592,48.917c-7.941,0-14.402-6.461-14.402-14.402s6.461-14.402,14.402-14.402s14.402,6.46,14.402,14.402
		S59.533,48.917,51.592,48.917z M51.592,22.335c-6.715,0-12.18,5.463-12.18,12.18s5.464,12.18,12.18,12.18
		c6.717,0,12.18-5.464,12.18-12.18S58.309,22.335,51.592,22.335z"/>
</g>
</svg>
