<?xml version="1.0" encoding="UTF-8" standalone="no"?>
<svg width="126px" height="158px" viewBox="0 0 126 158" version="1.1" xmlns="http://www.w3.org/2000/svg" xmlns:xlink="http://www.w3.org/1999/xlink" xmlns:sketch="http://www.bohemiancoding.com/sketch/ns">
    <!-- Generator: Sketch Beta 3.2.2 (9983) - http://www.bohemiancoding.com/sketch -->
    <title>archive icon</title>
    <desc>Created with Sketch Beta.</desc>
    <defs></defs>
    <g id="Page-1" stroke="none" stroke-width="1" fill="none" fill-rule="evenodd" sketch:type="MSPage">
        <g id="module-select-view" sketch:type="MSArtboardGroup" transform="translate(-747.000000, -679.000000)" fill="#97B3C5">
            <g id="modules-&amp;-titles" sketch:type="MSLayerGroup" transform="translate(504.000000, 252.000000)">
                <g id="Archives" transform="translate(115.000000, 351.000000)" sketch:type="MSShapeGroup">
                    <path d="M253.676982,76 L128,76 L128,226.563074 L141.614575,226.563074 C143.025358,230.367534 146.710986,233.096228 151.039918,233.096228 C155.368849,233.096228 159.052752,230.367534 160.46526,226.563074 L220.799525,226.563074 C222.210308,230.367534 225.895936,233.096228 230.224867,233.096228 C234.553799,233.096228 238.237702,230.367534 239.65021,226.563074 L253.676982,226.563074 L253.676982,76 L253.676982,76 Z M246.778287,82.8302708 L246.778287,121.733785 L134.898695,121.733785 L134.898695,82.8302708 L246.778287,82.8302708 L246.778287,82.8302708 Z M246.778287,128.564056 L246.778287,167.467571 L134.898695,167.467571 L134.898695,128.564056 L246.778287,128.564056 L246.778287,128.564056 Z M134.898695,219.732803 L134.898695,174.296134 L246.776562,174.296134 L246.776562,219.731095 L134.898695,219.731095 L134.898695,219.732803 Z M174.490308,95.8965787 L207.186674,95.8965787 L207.186674,99.0145973 L214.08537,99.0145973 L214.08537,89.066308 L167.591612,89.066308 L167.591612,99.0145973 L174.490308,99.0145973 L174.490308,95.8965787 Z M174.490308,144.748383 L174.490308,141.630364 L207.186674,141.630364 L207.186674,144.748383 L214.08537,144.748383 L214.08537,134.800093 L167.591612,134.800093 L167.591612,144.748383 L174.490308,144.748383 Z M167.591612,190.480461 L174.490308,190.480461 L174.490308,187.362442 L207.186674,187.362442 L207.186674,190.480461 L214.08537,190.480461 L214.08537,180.532171 L167.591612,180.532171 L167.591612,190.480461 Z" id="archive-icon"></path>
                </g>
            </g>
        </g>
    </g>
</svg>