<?xml version="1.0" encoding="UTF-8" standalone="no"?>
<svg width="90px" height="90px" viewBox="0 0 90 90" version="1.1" xmlns="http://www.w3.org/2000/svg" xmlns:xlink="http://www.w3.org/1999/xlink" xmlns:sketch="http://www.bohemiancoding.com/sketch/ns">
    <!-- Generator: Sketch Beta 3.2.2 (9983) - http://www.bohemiancoding.com/sketch -->
    <title>Shape</title>
    <desc>Created with Sketch Beta.</desc>
    <defs></defs>
    <g id="Page-1" stroke="none" stroke-width="1" fill="none" fill-rule="evenodd" sketch:type="MSPage">
        <path d="M85.326,0.005 L27.847,0.005 C25.271,0.005 23.173,2.093 23.173,4.679 L23.173,23.178 L4.674,23.178 C2.087,23.178 0,25.265 0,27.852 L0,85.321 C0,87.907 2.087,89.995 4.674,89.995 L62.143,89.995 C64.729,89.995 66.817,87.907 66.817,85.321 L66.817,66.822 L85.326,66.822 C87.902,66.822 90,64.734 90,62.148 L90,4.679 C90,2.093 87.902,0.005 85.326,0.005 L85.326,0.005 Z M57.469,80.647 L9.348,80.647 L9.348,32.526 L57.469,32.526 L57.469,80.647 L57.469,80.647 Z M80.652,57.474 L66.817,57.474 L66.817,27.852 C66.817,25.266 64.729,23.178 62.143,23.178 L32.521,23.178 L32.521,9.353 L80.652,9.353 L80.652,57.474 L80.652,57.474 Z" id="Shape" fill="#000000" sketch:type="MSShapeGroup"></path>
    </g>
</svg>