<?xml version="1.0" encoding="UTF-8" standalone="no"?>
<svg width="16px" height="39px" viewBox="0 0 16 39" version="1.1" xmlns="http://www.w3.org/2000/svg" xmlns:xlink="http://www.w3.org/1999/xlink" xmlns:sketch="http://www.bohemiancoding.com/sketch/ns">
    <!-- Generator: Sketch Beta 3.2.2 (9983) - http://www.bohemiancoding.com/sketch -->
    <title>Shape</title>
    <desc>Created with Sketch Beta.</desc>
    <defs></defs>
    <g id="Page-1" stroke="none" stroke-width="1" fill="none" fill-rule="evenodd" sketch:type="MSPage">
        <g id="music-button" sketch:type="MSArtboardGroup" transform="translate(-30.000000, -19.000000)" fill="#979797">
            <g id="Oval-3-+-Shape" sketch:type="MSLayerGroup" transform="translate(6.000000, 6.000000)">
                <path d="M39.9940056,35.3566688 C39.9944337,35.3185613 40,35.2813102 40,35.2432027 L39.9888675,35.2432027 C39.9314922,33.5322201 39.283237,31.9758082 38.1348748,30.8420039 C37.0327553,29.753586 35.5457076,29.1049026 33.8925284,28.973025 L33.8925284,24.9075145 C38.3258403,21.051809 38.0526654,16.8454292 37.9661743,16.1149647 C37.921216,14.3898523 36.5035324,13 34.7677157,13 C33.046885,13 31.5919503,14.4622137 31.5422822,16.2130165 L31.5375723,16.2130165 L31.5375723,23.7163348 C29.6390495,25.0094198 23.9464783,29.3772212 24.0042817,35.2427746 L24,35.2427746 C24,35.435881 24.0154143,35.625562 24.0304003,35.8148148 C24.032113,35.8413616 24.0316849,35.8661957 24.0338257,35.8927425 L24.0342539,35.8927425 C24.3678013,39.664954 27.5675444,42.6587455 31.5371441,42.8771141 L31.5371441,48.1509313 C31.5371441,48.9387711 30.8961678,49.5797474 30.108328,49.5797474 C29.3204881,49.5797474 28.6795119,48.9387711 28.6795119,48.1509313 C28.6795119,47.3626632 29.3204881,46.721687 30.108328,46.721687 L30.108328,44.3667309 C28.0218369,44.3667309 26.3245558,46.0644402 26.3245558,48.1509313 C26.3245558,50.2374224 28.0218369,51.9347035 30.108328,51.9347035 C32.1104689,51.9347035 33.7495183,50.3710126 33.8796832,48.401413 L33.8921002,48.401413 L33.8921002,42.6745879 C37.3114965,41.8764718 39.8715478,38.9747377 39.9867266,35.4864055 L39.9995718,35.4864055 C40,35.4427317 39.9948619,35.3999144 39.9940056,35.3566688 L39.9940056,35.3566688 Z M34.7672875,15.3553843 C35.2331407,15.3553843 35.6120745,15.7343181 35.6120745,16.2001713 L35.6257761,16.3791479 C35.642903,16.5003211 35.9477628,18.8492828 33.8921002,21.5078142 L33.8921002,16.3050739 C33.8921002,15.8169557 34.3172768,15.3553843 34.7672875,15.3553843 L34.7672875,15.3553843 Z M26.379362,35.6996361 L26.3806465,35.6996361 C26.0578035,31.775851 29.3650182,28.4206808 31.5371441,26.6608863 L31.5371441,29.1472918 C28.7779919,29.8041105 27.0143438,32.0563049 27.0143438,35.150289 C27.0143438,35.6885035 27.0828516,36.2232927 27.2172982,36.7400985 L29.4960394,36.145365 C29.4116891,35.8229501 29.3692999,35.4881182 29.3692999,35.150289 C29.3692999,33.3849283 30.1558553,32.1389424 31.5371441,31.5998715 L31.5371441,40.5230143 C28.8015414,40.3132092 26.6140013,38.2665382 26.379362,35.6996361 L26.379362,35.6996361 Z M33.8921002,40.2318561 L33.8921002,31.3369728 C34.9085849,31.4525797 35.8180261,31.8636266 36.4795547,32.5170199 C37.2125883,33.2410619 37.6095055,34.2194391 37.6390495,35.3506744 C37.5906658,37.6032969 36.0411047,39.5108114 33.8921002,40.2318561 L33.8921002,40.2318561 Z" id="Shape" sketch:type="MSShapeGroup"></path>
            </g>
        </g>
    </g>
</svg>