<?xml version="1.0" encoding="utf-8"?>
<!-- Generator: Adobe Illustrator 16.0.0, SVG Export Plug-In . SVG Version: 6.00 Build 0)  -->
<!DOCTYPE svg PUBLIC "-//W3C//DTD SVG 1.1//EN" "http://www.w3.org/Graphics/SVG/1.1/DTD/svg11.dtd">
<svg version="1.1" id="Layer_1" xmlns="http://www.w3.org/2000/svg" xmlns:xlink="http://www.w3.org/1999/xlink" x="0px" y="0px"
	 width="59.75px" height="61.75px" viewBox="17.25 0 59.75 61.75" enable-background="new 17.25 0 59.75 61.75"
	 xml:space="preserve">
<path d="M37.365,36.114c-2.199-2.432-3.41-5.578-3.41-8.857c0-4.215,1.942-8.08,5.329-10.602c0.921-0.687,1.112-1.99,0.426-2.911
	c-0.687-0.921-1.99-1.112-2.911-0.426c-4.386,3.267-7.004,8.478-7.004,13.939c0,4.313,1.592,8.449,4.483,11.647
	c0.411,0.454,0.977,0.686,1.544,0.686c0.498,0,0.996-0.177,1.395-0.537C38.07,38.281,38.136,36.967,37.365,36.114z"/>
<path d="M64.539,27.257c0-5.462-2.619-10.673-7.006-13.939c-0.922-0.686-2.225-0.495-2.911,0.426
	c-0.687,0.921-0.495,2.225,0.427,2.911c3.387,2.522,5.328,6.386,5.328,10.602c0,3.28-1.211,6.425-3.41,8.857
	c-0.77,0.853-0.703,2.168,0.148,2.938c0.398,0.36,0.897,0.537,1.395,0.537c0.567,0,1.133-0.231,1.543-0.686
	C62.945,35.707,64.539,31.57,64.539,27.257z"/>
<path d="M59.497,1.238c-1.038-0.492-2.279-0.05-2.772,0.988c-0.492,1.038-0.05,2.279,0.988,2.772
	c8.555,4.061,14.082,12.798,14.082,22.26c0,8.228-4.086,15.879-10.932,20.47c-0.953,0.64-1.209,1.932-0.568,2.887
	c0.401,0.599,1.059,0.922,1.729,0.922c0.398,0,0.801-0.114,1.156-0.353c7.999-5.363,12.775-14.308,12.775-23.925
	C75.956,16.198,69.496,5.984,59.497,1.238z"/>
<path d="M33.47,47.727c-6.845-4.59-10.932-12.242-10.932-20.47c0-9.461,5.528-18.199,14.083-22.26
	c1.038-0.493,1.48-1.733,0.987-2.772c-0.492-1.038-1.733-1.48-2.771-0.987c-9.999,4.747-16.459,14.96-16.459,26.02
	c0,9.617,4.776,18.561,12.775,23.926c0.355,0.238,0.758,0.352,1.157,0.352c0.67,0,1.328-0.323,1.729-0.922
	C34.679,49.659,34.424,48.367,33.47,47.727z"/>
<path d="M49.331,34.621c3.185-0.935,5.511-3.876,5.511-7.363c0-4.238-3.437-7.675-7.676-7.675c-4.238,0-7.673,3.437-7.673,7.674
	c0,3.487,2.326,6.428,5.51,7.363l-2.771,9.323L37.295,60.63h9.871h9.871l-4.936-16.686L49.331,34.621z"/>
</svg>
