<?xml version="1.0" encoding="utf-8"?>
<!-- Generator: Adobe Illustrator 16.0.0, SVG Export Plug-In . SVG Version: 6.00 Build 0)  -->
<!DOCTYPE svg PUBLIC "-//W3C//DTD SVG 1.1//EN" "http://www.w3.org/Graphics/SVG/1.1/DTD/svg11.dtd">
<svg version="1.1" id="Layer_1" xmlns="http://www.w3.org/2000/svg" xmlns:xlink="http://www.w3.org/1999/xlink" x="0px" y="0px"
	 width="59.044px" height="53.562px" viewBox="21.363 8.049 59.044 53.562" enable-background="new 21.363 8.049 59.044 53.562"
	 xml:space="preserve">
<g>
	<path d="M42.867,24.38c-0.054-0.04-0.112-0.074-0.173-0.103c-0.013-0.006,0.02-0.026,0.016-0.04
		c-0.018-0.063-0.08-0.417,0.444-1.225c0.217-0.335,0.233-0.762,0.044-1.112c-0.19-0.351-0.558-0.569-0.957-0.569H26.739
		c-0.399,0-0.766,0.218-0.956,0.569c-0.19,0.351-0.173,0.777,0.043,1.112c0.483,0.744,0.495,1.157,0.421,1.267
		c-0.07,0.022-0.044,0.026-0.135,0.093c-0.768,0.555-3.072,2.383-2.62,3.98l-2.127,30.618c-0.038,0.544,0.333,1.033,0.868,1.143
		l7.208,1.475c0.073,0.016,0.145,0.022,0.219,0.022h9.658c0.073,0,0.146-0.007,0.216-0.022l7.209-1.463
		c0.536-0.109,0.907-0.6,0.869-1.144l-2.127-30.596C45.944,26.77,43.634,24.935,42.867,24.38z M39.209,59.434h-9.438l-6.167-1.262
		l2.078-29.917c0.008-0.122-0.004-0.243-0.035-0.359c0.059-0.164,0.347-0.741,1.691-1.724c0.262-0.154,0.8-0.554,1.025-1.341
		c0.119-0.413,0.128-0.855,0.031-1.323h12.191c-0.098,0.467-0.088,0.91,0.029,1.323c0.225,0.792,0.764,1.194,1.025,1.349
		c1.369,1.001,1.642,1.588,1.695,1.748c-0.033,0.119-0.046,0.243-0.037,0.367l2.078,29.888L39.209,59.434z"/>
	<path d="M26.589,18.501c-0.602,0-1.089,0.487-1.089,1.088s0.487,1.089,1.089,1.089h15.895c0.601,0,1.088-0.488,1.088-1.089
		s-0.487-1.088-1.088-1.088H26.589z"/>
	<path d="M26.033,17.848h16.314c0.304,0,0.595-0.128,0.801-0.352c0.114-0.125,2.791-3.078,1.582-5.84
		c-1.045-2.39-4.433-3.571-10.362-3.606c-0.014-0.001-0.028-0.001-0.043-0.001h-0.229c-0.014,0-0.028,0-0.042,0.001
		c-5.934,0.035-9.331,1.217-10.382,3.612c-1.211,2.758,1.445,5.708,1.558,5.832C25.436,17.719,25.727,17.848,26.033,17.848z
		 M25.665,12.538c0.251-0.572,1.29-1.788,5.536-2.183c0.232,0.1,0.603,0.166,1.022,0.166c0.57,0,1.051-0.12,1.214-0.285
		c0.25-0.005,0.504-0.008,0.771-0.008c0,0,0,0,0.001,0c0.261,0,0.513,0.003,0.758,0.007c0.162,0.166,0.645,0.286,1.214,0.286
		c0.421,0,0.793-0.065,1.025-0.167c4.24,0.392,5.277,1.602,5.527,2.171c0.475,1.077-0.421,2.495-0.906,3.145H26.547
		C26,14.937,25.219,13.552,25.665,12.538z"/>
	<path d="M42.444,27.546c-2.037,0.977-3.727,0.057-3.796,0.018c-0.178-0.102-0.4-0.095-0.572,0.02
		c-3.559,2.373-6.914,0.104-7.053,0.007c-0.161-0.113-0.37-0.13-0.548-0.045c-2.036,0.978-3.727,0.057-3.795,0.018
		c-0.261-0.149-0.593-0.059-0.743,0.202c-0.149,0.262-0.059,0.593,0.203,0.743c0.081,0.046,1.819,1.013,4.027,0.324l-0.873,28.069
		c-0.009,0.3,0.227,0.571,0.527,0.571c0.006,0,0.012,0,0.017,0c0.293,0,0.535-0.238,0.544-0.534l0.87-27.99
		c0.763,0.356,1.979,0.785,3.416,0.785c0.979,0,2.062-0.201,3.172-0.757l1.117,27.95c0.012,0.292,0.252,0.522,0.543,0.522
		c0.008,0,0.015,0,0.022,0c0.3-0.014,0.534-0.265,0.522-0.566l-1.121-28.044c0.87,0.266,2.344,0.477,3.991-0.314
		c0.27-0.13,0.385-0.456,0.254-0.727C43.04,27.53,42.715,27.416,42.444,27.546z"/>
	<ellipse cx="30.338" cy="11.243" rx="1.273" ry="0.409"/>
	<ellipse cx="34.296" cy="11.243" rx="1.272" ry="0.409"/>
	<ellipse cx="38.254" cy="11.243" rx="1.273" ry="0.409"/>
	<path d="M78.277,28.388c0.457-1.618-1.852-3.454-2.619-4.008c-0.053-0.039-0.112-0.075-0.17-0.103
		c-0.016-0.006,0.019-0.026,0.015-0.042c-0.016-0.061-0.079-0.416,0.442-1.223c0.219-0.333,0.235-0.762,0.045-1.113
		c-0.189-0.35-0.557-0.567-0.956-0.567H59.531c-0.4,0-0.766,0.217-0.958,0.567c-0.19,0.351-0.172,0.78,0.044,1.113
		c0.482,0.744,0.496,1.156,0.422,1.267c-0.072,0.022-0.047,0.026-0.137,0.092c-0.768,0.557-3.07,2.384-2.617,3.98l-2.127,30.62
		c-0.038,0.545,0.332,1.033,0.866,1.143l7.208,1.475c0.072,0.016,0.146,0.022,0.218,0.022h9.659c0.074,0,0.145-0.007,0.217-0.022
		l7.209-1.463c0.537-0.107,0.906-0.6,0.869-1.144L78.277,28.388z M72.001,59.434h-9.438l-6.166-1.263l2.078-29.916
		c0.01-0.122-0.005-0.242-0.035-0.359c0.058-0.164,0.346-0.741,1.691-1.725c0.262-0.152,0.798-0.553,1.025-1.339
		c0.117-0.414,0.126-0.855,0.03-1.325h12.19c-0.098,0.469-0.086,0.911,0.03,1.322c0.225,0.792,0.763,1.196,1.024,1.351
		c1.369,0.999,1.645,1.587,1.695,1.746c-0.033,0.119-0.047,0.245-0.037,0.368l2.078,29.888L72.001,59.434z"/>
	<path d="M63.813,27.591c0.141,0.095,3.494,2.364,7.054-0.007c0.172-0.116,0.391-0.122,0.571-0.019
		c0.047,0.026,0.844,0.46,1.987,0.426c-0.132-0.106-0.275-0.219-0.436-0.335c0,0-0.91-0.446-0.787-2.188h-9.471
		c0.098,1.742-1.067,2.186-1.067,2.186c-0.162,0.118-0.308,0.23-0.438,0.337c0.591,0.016,1.292-0.087,2.04-0.447
		C63.443,27.46,63.653,27.478,63.813,27.591z"/>
	<path d="M74.358,28.98c-1.083,0.213-2.018,0.053-2.642-0.137l1.121,28.042c0.012,0.301-0.223,0.553-0.522,0.566h-0.021
		c-0.292,0-0.533-0.229-0.544-0.522l-1.117-27.951c-1.111,0.558-2.193,0.758-3.173,0.758c-1.437,0-2.651-0.426-3.413-0.784
		l-0.873,27.99c-0.009,0.293-0.252,0.533-0.545,0.533h-0.016c-0.3,0-0.537-0.271-0.527-0.572l0.874-28.064
		c-1.026,0.318-1.952,0.281-2.655,0.144c-0.385,0.605-0.215,0.93-0.215,0.93L58.52,57.03l5.275,1.098h7.068l5.274-1.118
		l-1.569-27.138C74.567,29.873,74.735,29.568,74.358,28.98z"/>
	<path d="M75.142,18.501H59.465c-0.602,0-1.088,0.487-1.088,1.088s0.486,1.089,1.088,1.089h15.677c0.603,0,1.089-0.488,1.089-1.089
		S75.744,18.501,75.142,18.501z"/>
	<path d="M58.824,17.848h16.312c0.306,0,0.597-0.128,0.802-0.352c0.114-0.125,2.79-3.078,1.583-5.84
		c-1.045-2.39-4.434-3.571-10.362-3.606c-0.016-0.001-0.028-0.001-0.043-0.001h-0.231c-0.014,0-0.027,0-0.041,0.001
		c-5.936,0.035-9.332,1.217-10.383,3.612c-1.211,2.758,1.443,5.708,1.559,5.832C58.227,17.719,58.519,17.848,58.824,17.848z
		 M58.457,12.538c0.252-0.572,1.289-1.788,5.536-2.183c0.231,0.1,0.603,0.166,1.022,0.166c0.57,0,1.051-0.12,1.215-0.285
		c0.249-0.005,0.504-0.008,0.77-0.008c0.001,0,0.001,0,0.002,0c0.262,0,0.512,0.003,0.758,0.007
		c0.162,0.166,0.643,0.286,1.213,0.286c0.422,0,0.793-0.065,1.025-0.167c4.242,0.392,5.277,1.602,5.529,2.171
		c0.475,1.077-0.421,2.495-0.908,3.145H59.338C58.792,14.937,58.01,13.552,58.457,12.538z"/>
	<ellipse cx="63.131" cy="11.243" rx="1.271" ry="0.409"/>
	<ellipse cx="67.088" cy="11.243" rx="1.271" ry="0.409"/>
	<ellipse cx="71.045" cy="11.243" rx="1.273" ry="0.409"/>
</g>
</svg>
