<?xml version="1.0" encoding="utf-8"?>
<!-- Generator: Adobe Illustrator 16.0.0, SVG Export Plug-In . SVG Version: 6.00 Build 0)  -->
<!DOCTYPE svg PUBLIC "-//W3C//DTD SVG 1.1//EN" "http://www.w3.org/Graphics/SVG/1.1/DTD/svg11.dtd">
<svg version="1.1" id="Layer_1" xmlns:sketch="http://www.bohemiancoding.com/sketch/ns"
	 xmlns="http://www.w3.org/2000/svg" xmlns:xlink="http://www.w3.org/1999/xlink" x="0px" y="0px" width="91.102px"
	 height="74.613px" viewBox="0.459 0.687 91.102 74.613" enable-background="new 0.459 0.687 91.102 74.613" xml:space="preserve">
<title>Group</title>
<desc>Created with Sketch Beta.</desc>
<g id="Page-1" sketch:type="MSPage">
	<g id="pie-noun_80449" sketch:type="MSLayerGroup">
		<g id="Group" sketch:type="MSShapeGroup">
			<path id="Shape" fill="none" d="M14.9,51.9C19.5,54.6,54.4,59.6,71.4,62C78.6,63,82.8,63.7,85.3,64.1V50L13.8,36.4
				C14,41.2,14.3,48.8,14.9,51.9L14.9,51.9z"/>
			<path id="Shape_1_" d="M89.3,65.3v-17v-0.2V48c0-0.2-0.1-0.4-0.2-0.5v-0.1C89,47.2,88.9,47.1,88.8,47l0,0L70.9,28.7
				c-0.2,1.7-0.601,3-1.5,4.2l12,12.3l-66-12.5c1.8-1.6,4.6-3,7.5-3.2c5.3-0.4,11.1-2,15.8-3.9c0-0.5,0-1,0.1-1.4
				c0.2-1.6,0.9-2.9,1.9-3.9C36.3,22.6,29,25,22.6,25.5c-5.9,0.4-10.9,4.2-12.7,7.6v0.1c0,0.1-0.1,0.2-0.1,0.3v0.1v0.3V34l0,0
				c0,0.6,0.3,15,1.4,19.3c0.8,2.9,6.6,5,59.7,12.601C78.5,67,85.8,68,86.7,68.3c0.3,0.101,1.1,0.4,0.899,1.5
				c-0.1,0.7-0.6,1.5-1.399,1.5c-3,0-56.3-8-72.3-10.899C6.3,59,5.7,50.7,5.7,42.9c0-4.601-0.2-7.7-0.5-8.8c-0.9-3-0.9-5.2-0.2-6.5
				c0.8-1.4,2.7-1.9,4.7-2.4s4-1,5.2-2.7c3-4.2,5.4-4.1,8.4-3.9c2.7,0.1,6,0.2,8.9-3.1c3.5-4,6-3.5,8.6-2.9c1.9,0.4,4.2,0.9,6.3-0.8
				C48.7,10.6,50.2,9,50.8,5c-2.2,0.7-4.2,2.1-6.1,3.6c-0.6,0.5-1.3,0.4-3.1,0.1c-2.9-0.6-7.3-1.5-12.4,4.2
				c-1.7,1.9-3.3,1.9-5.8,1.8c-3.4-0.1-7.6-0.3-11.8,5.6c-0.3,0.4-1.8,0.8-2.9,1.1c-2.5,0.6-5.6,1.4-7.2,4.3
				c-1.3,2.3-1.4,5.5-0.2,9.6l0,0c0,0.2,0.4,1.7,0.4,7.601c0,6.3,0,19.399,11.5,21.399c14,2.5,69.1,11,73,11c2.6,0,4.899-2,5.3-4.8
				C91.8,68.4,91,66.5,89.3,65.3L89.3,65.3z M85.3,64.1c-2.5-0.399-6.7-1-13.899-2.1c-17-2.4-51.9-7.5-56.5-10.1
				c-0.6-3.101-1-10.7-1.1-15.4L85.3,50V64.1L85.3,64.1z"/>
			<path id="Shape_2_" d="M71,26.2c-0.1-3.5-2.2-6.4-3.5-7.8C70.1,8.7,54.6,1.2,53.9,0.9C53.3,0.6,52.6,0.6,52,1s-0.9,1-1,1.7
				c0,0.9-0.1,1.7-0.2,2.5c-0.5,4-2.1,5.6-3.7,6.8c-0.3,0.2-0.6,0.4-0.8,0.6c-2.1,1.5-3.8,3-3.2,6.3c-0.9,0.4-1.7,0.9-2.4,1.6
				c-1,1-1.7,2.3-1.9,3.9c-0.1,0.5-0.1,1-0.1,1.4c0,2.8,1.4,5.5,3.6,7c2.4,1.6,8.9,4,15.4,4c1.3,0,2.5-0.1,3.8-0.3
				c4.1-0.7,6.5-1.8,7.8-3.4c0.9-1.1,1.4-2.5,1.5-4.2C71,27.9,71,27.1,71,26.2L71,26.2z M67,26.3c0,1.6,0.1,2.8-0.4,3.7
				C66,31.1,64.4,31.8,61,32.4c-6.2,1-13.9-1.4-16.4-3.1c-1.3-0.8-2-2.7-1.7-4.4c0.1-0.6,0.3-1,0.6-1.4c0.4-0.5,0.9-0.9,1.6-1.1h0.1
				l0,0l0.2,0.2c0.8,0.8,2.1,2.1,5.5,3.1c1.1,0.3,2.199-0.3,2.5-1.4c0.3-1.1-0.301-2.2-1.4-2.5c-1.6-0.4-2.4-0.9-3-1.4
				c-0.3-0.2-0.5-0.5-0.8-0.7c-0.2-0.2-0.4-0.4-0.7-0.6c-0.5-1.3-0.6-1.9,0.1-2.4c0.301-0.3,0.601-0.5,1.2-0.9
				c1.8-1.2,4.2-2.9,5.5-6.9C54.6,8,54.8,7.1,55,6c1.6,0.9,3.6,2.3,5.3,3.9c2.5,2.3,4.4,5.1,3.5,7.9c-0.8,0.5-1.899,0.7-2.7,0.7
				h-0.6c-1.1-0.1-2.1,0.6-2.2,1.7c-0.1,1.1,0.601,2.1,1.7,2.2c0.1,0,0.5,0.1,1.1,0.1c0.9,0,2.101-0.1,3.4-0.6
				c0.2-0.1,0.5-0.2,0.7-0.3c0.5,0.7,1.2,1.6,1.6,2.7C66.8,24.9,67,25.6,67,26.3L67,26.3z"/>
		</g>
	</g>
</g>
</svg>
