<?xml version="1.0" encoding="UTF-8" standalone="no"?>
<svg width="14px" height="34px" viewBox="0 0 14 34" version="1.1" xmlns="http://www.w3.org/2000/svg" xmlns:xlink="http://www.w3.org/1999/xlink" xmlns:sketch="http://www.bohemiancoding.com/sketch/ns">
    <!-- Generator: Sketch Beta 3.2.2 (9983) - http://www.bohemiancoding.com/sketch -->
    <title>timeline handles</title>
    <desc>Created with Sketch Beta.</desc>
    <defs></defs>
    <g id="Page-1" stroke="none" stroke-width="1" fill="none" fill-rule="evenodd" sketch:type="MSPage">
        <g id="Artboard-20" sketch:type="MSArtboardGroup" transform="translate(-12.000000, -10.000000)" fill="#464646">
            <path d="M12,10.9991421 C12,10.4473312 12.4438648,10 13,10 C13.5522847,10 14,10.4549243 14,10.9991421 L14,43.0008579 C14,43.5526688 13.5561352,44 13,44 C12.4477153,44 12,43.5450757 12,43.0008579 L12,10.9991421 Z M18,10.9991421 C18,10.4473312 18.4438648,10 19,10 C19.5522847,10 20,10.4549243 20,10.9991421 L20,43.0008579 C20,43.5526688 19.5561352,44 19,44 C18.4477153,44 18,43.5450757 18,43.0008579 L18,10.9991421 Z M24,10.9991421 C24,10.4473312 24.4438648,10 25,10 C25.5522847,10 26,10.4549243 26,10.9991421 L26,43.0008579 C26,43.5526688 25.5561352,44 25,44 C24.4477153,44 24,43.5450757 24,43.0008579 L24,10.9991421 Z" id="timeline-handles" sketch:type="MSShapeGroup"></path>
        </g>
    </g>
</svg>